<svg width="32" height="22" viewBox="0 0 32 22" fill="none" xmlns="http://www.w3.org/2000/svg">
<path d="M29.5 0.21875H2.5C1.12156 0.21875 0 1.27021 0 2.5625V19.4375C0 20.7298 1.12156 21.7812 2.5 21.7812H29.5C30.8784 21.7812 32 20.7298 32 19.4375V2.5625C32 1.27021 30.8784 0.21875 29.5 0.21875Z" fill="#5D647F"/>
<path d="M11 9.59375H5C4.44769 9.59375 4 9.17404 4 8.65625V4.90625C4 4.38846 4.44769 3.96875 5 3.96875H11C11.5523 3.96875 12 4.38846 12 4.90625V8.65625C12 9.17404 11.5523 9.59375 11 9.59375Z" fill="#FFD100"/>
<path d="M7.5 15.6875H5C4.44769 15.6875 4 15.2678 4 14.75V14.2812C4 13.7635 4.44769 13.3438 5 13.3438H7.5C8.05231 13.3438 8.5 13.7635 8.5 14.2812V14.75C8.5 15.2678 8.05231 15.6875 7.5 15.6875ZM14 15.6875H11.5C10.9477 15.6875 10.5 15.2678 10.5 14.75V14.2812C10.5 13.7635 10.9477 13.3438 11.5 13.3438H14C14.5523 13.3438 15 13.7635 15 14.2812V14.75C15 15.2678 14.5523 15.6875 14 15.6875ZM20.5 15.6875H18C17.4477 15.6875 17 15.2678 17 14.75V14.2812C17 13.7635 17.4477 13.3438 18 13.3438H20.5C21.0523 13.3438 21.5 13.7635 21.5 14.2812V14.75C21.5 15.2678 21.0523 15.6875 20.5 15.6875ZM27 15.6875H24.5C23.9477 15.6875 23.5 15.2678 23.5 14.75V14.2812C23.5 13.7635 23.9477 13.3438 24.5 13.3438H27C27.5523 13.3438 28 13.7635 28 14.2812V14.75C28 15.2678 27.5523 15.6875 27 15.6875Z" fill="#B8BAC0"/>
<path d="M14.5 18.5H4.5C4.22363 18.5 4 18.2901 4 18.0312C4 17.7724 4.22363 17.5625 4.5 17.5625H14.5C14.7764 17.5625 15 17.7724 15 18.0312C15 18.2901 14.7764 18.5 14.5 18.5ZM21 18.5H16.5C16.2236 18.5 16 18.2901 16 18.0312C16 17.7724 16.2236 17.5625 16.5 17.5625H21C21.2764 17.5625 21.5 17.7724 21.5 18.0312C21.5 18.2901 21.2764 18.5 21 18.5Z" fill="#8A8895"/>
<path d="M12 7.25H7V6.3125H12V5.375H7V3.96875H6V9.59375H7V8.1875H12V7.25Z" fill="#FF9500"/>
<path d="M25 9.59375C26.6569 9.59375 28 8.33455 28 6.78125C28 5.22795 26.6569 3.96875 25 3.96875C23.3431 3.96875 22 5.22795 22 6.78125C22 8.33455 23.3431 9.59375 25 9.59375Z" fill="#FF4F19"/>
</svg>
