<svg width="32" height="20" viewBox="0 0 32 20" fill="none" xmlns="http://www.w3.org/2000/svg">
<rect width="32" height="20" rx="3" fill="white"/>
<path d="M10.2115 6.0005H12.1691C12.89 5.98882 13.6812 6.17639 13.6812 7.04968C13.6812 7.42476 13.4584 7.72949 13.1303 7.89359C13.5756 8.0225 13.8512 8.40941 13.8512 8.88411C13.8512 9.88049 13.1185 10.1852 12.2218 10.1852H10.2115V6.0005ZM11.3016 7.64747H12.1457C12.3332 7.64747 12.591 7.54779 12.591 7.24893C12.591 6.94414 12.3741 6.84457 12.1457 6.84457H11.3016V7.64747ZM11.3016 9.31193H12.1749C12.5207 9.31193 12.761 9.1889 12.761 8.8431C12.761 8.47383 12.5031 8.35075 12.1749 8.35075H11.3016V9.31193ZM15.5798 6.0005H16.6873L18.2522 10.1852H17.1152L16.8574 9.43502H15.398L15.1342 10.1852H14.0148L15.5798 6.0005ZM15.65 8.62631H16.5994L16.1364 7.16109H16.1248L15.65 8.62631ZM18.5566 6.0005H19.6761L21.1296 8.57932H21.1412V6.0005H22.1671V10.1852H21.0475L19.594 7.57718H19.5824V10.1852H18.5566V6.0005ZM22.911 6.0005H24.0011V7.60646L25.3784 6.0005H26.7323L25.185 7.64747L26.9258 10.1852H25.5719L24.4466 8.42706L24.0012 8.89595V10.1853H22.911V6.00055L22.911 6.0005Z" fill="#006E90"/>
<path d="M7.47021 11.7035H6.6104V13.9394H5.85983V11.7035H5.00012V11.0577H7.47021V11.7035ZM7.80114 11.0577H9.27027C9.77883 11.0577 10.2793 11.2879 10.2793 11.8689C10.2793 12.1797 10.1301 12.4744 9.8273 12.5915V12.5995C10.134 12.6722 10.2227 13.0152 10.247 13.2897C10.2551 13.4107 10.2673 13.8345 10.3681 13.9395H9.62533C9.5608 13.8427 9.54871 13.5601 9.54063 13.4795C9.52035 13.1888 9.47209 12.8902 9.12094 12.8902H8.55186V13.9395H7.80114V11.0577ZM8.55202 12.3088H9.18145C9.40751 12.3088 9.52859 12.1878 9.52859 11.9699C9.52859 11.7561 9.35908 11.659 9.14924 11.659H8.55196L8.55202 12.3088ZM11.4981 11.0577H12.261L13.3385 13.9395H12.5555L12.378 13.4228H11.373L11.1915 13.9395H10.4205L11.4981 11.0577ZM11.5466 12.8659H12.2005L11.8816 11.8567H11.8735L11.5466 12.8659ZM13.5485 11.0577H14.3194L15.3204 12.8336H15.3286V11.0577H16.0349V13.9395H15.2641L14.2629 12.1435H14.2549V13.9395H13.5485V11.0577ZM17.1326 12.9708C17.1488 13.3098 17.3587 13.4187 17.6775 13.4187C17.9035 13.4187 18.1376 13.3381 18.1376 13.1241C18.1376 12.8699 17.7259 12.8215 17.3103 12.7043C16.8986 12.5873 16.4667 12.4017 16.4667 11.8729C16.4667 11.2433 17.1004 10.9971 17.6413 10.9971C18.2144 10.9971 18.7915 11.2755 18.7956 11.9253H18.0448C18.0569 11.663 17.8107 11.5782 17.5806 11.5782C17.4192 11.5782 17.2174 11.6347 17.2174 11.8245C17.2174 12.0464 17.6331 12.0867 18.0528 12.2039C18.4687 12.3209 18.8883 12.5146 18.8883 13.0352C18.8883 13.7658 18.2667 14 17.6331 14C16.9712 14 16.3861 13.7093 16.3819 12.9707H17.1326V12.9708ZM19.2394 11.0577H21.3625V11.6591H19.9903V12.2484H21.1768V12.8294H19.9903V13.9395H19.2394V11.0577ZM21.7057 11.0577H24.0022V11.6591H22.4563V12.1636H23.869V12.7448H22.4563V13.2937H24.0426V13.9394H21.7057L21.7057 11.0577ZM24.4704 11.0577H25.9395C26.4481 11.0577 26.9484 11.2879 26.9484 11.8689C26.9484 12.1797 26.7992 12.4744 26.4965 12.5915V12.5995C26.8032 12.6722 26.892 13.0152 26.9162 13.2897C26.9244 13.4107 26.9363 13.8345 27.0373 13.9395H26.2946C26.2299 13.8427 26.218 13.5601 26.2099 13.4795C26.1897 13.1888 26.1413 12.8902 25.7902 12.8902H25.2211V13.9395H24.4704V11.0577ZM25.2211 12.3088H25.8508C26.0768 12.3088 26.1978 12.1878 26.1978 11.9699C26.1978 11.7561 26.0284 11.659 25.8184 11.659H25.2211V12.3088Z" fill="#66CDE7"/>
<path d="M5 6H9.54375V6.90988H5V6ZM5 9.27531H9.54375V10.1851H5V9.27531ZM5 7.6374H9.54375V8.54728H5V7.6374Z" fill="#D92B2B"/>
<rect x="0.1" y="0.1" width="31.8" height="19.8" rx="2.9" stroke="#333333" stroke-opacity="0.08" stroke-width="0.2"/>
</svg>
