<svg width="76" height="19" viewBox="0 0 76 19" fill="none" xmlns="http://www.w3.org/2000/svg">
<path d="M34.9836 13.8684H33.1812V18.5554H31.6079V13.8684H29.8058V12.5147H34.9836V13.8684ZM35.6773 12.5148H38.7568C39.8229 12.5148 40.8719 12.9972 40.8719 14.2152C40.8719 14.8667 40.5592 15.4844 39.9245 15.7299V15.7466C40.5674 15.8991 40.7533 16.618 40.8042 17.1934C40.8212 17.4471 40.8467 18.3354 41.0582 18.5557H39.5011C39.3658 18.3527 39.3405 17.7604 39.3236 17.5912C39.2811 16.982 39.1799 16.3561 38.4438 16.3561H37.2509V18.5557H35.6773V12.5148ZM37.2512 15.1374H38.5707C39.0445 15.1374 39.2983 14.8837 39.2983 14.427C39.2983 13.9787 38.943 13.7753 38.5031 13.7753H37.2511L37.2512 15.1374ZM43.4269 12.5148H45.0259L47.2847 18.5556H45.6432L45.2713 17.4725H43.1646L42.784 18.5556H41.1679L43.4269 12.5148ZM43.5285 16.305H44.8992L44.2307 14.1897H44.2138L43.5285 16.305ZM47.7249 12.5148H49.3408L51.4391 16.2374H51.4562V12.5148H52.9368V18.5556H51.321L49.2224 14.7908H49.2055V18.5556H47.7249V12.5148ZM55.2378 16.525C55.2718 17.2356 55.7116 17.4638 56.3801 17.4638C56.8537 17.4638 57.3445 17.2948 57.3445 16.8464C57.3445 16.3134 56.4815 16.2119 55.6103 15.9663C54.7472 15.721 53.8419 15.3321 53.8419 14.2235C53.8419 12.9038 55.1703 12.3877 56.304 12.3877C57.5053 12.3877 58.7151 12.9712 58.7237 14.3335H57.15C57.1754 13.7836 56.6592 13.6059 56.177 13.6059C55.8386 13.6059 55.4156 13.7242 55.4156 14.122C55.4156 14.5873 56.2869 14.6718 57.1668 14.9173C58.0384 15.1626 58.9182 15.5686 58.9182 16.66C58.9182 18.1915 57.6152 18.6823 56.287 18.6823C54.8995 18.6823 53.673 18.073 53.6641 16.5249H55.2378V16.525ZM59.6541 12.5148H64.1045V13.7754H61.228V15.0106H63.7153V16.2287H61.228V18.5556H59.6541V12.5148ZM64.8238 12.5148H69.6378V13.7754H66.3974V14.833H69.3585V16.0512H66.3974V17.2019H69.7225V18.5554H64.8239L64.8238 12.5148ZM70.6193 12.5148H73.6988C74.7649 12.5148 75.8137 12.9972 75.8137 14.2152C75.8137 14.8667 75.5008 15.4844 74.8663 15.7299V15.7466C75.5092 15.8991 75.6954 16.618 75.746 17.1934C75.7632 17.4471 75.7883 18.3354 75.9999 18.5557H74.4431C74.3075 18.3527 74.2825 17.7604 74.2655 17.5912C74.2232 16.982 74.1218 16.3561 73.3857 16.3561H72.1929V18.5557H70.6193V12.5148ZM72.1929 15.1374H73.5129C73.9865 15.1374 74.2401 14.8837 74.2401 14.427C74.2401 13.9787 73.8851 13.7753 73.4449 13.7753H72.1929V15.1374Z" fill="#66CDE7"/>
<path d="M29.8058 0.6459H33.8328C35.3158 0.62187 36.9434 1.00772 36.9434 2.80424C36.9434 3.57584 36.4851 4.20273 35.8101 4.54031C36.7261 4.80548 37.2932 5.60143 37.2932 6.57797C37.2932 8.6277 35.7859 9.25448 33.9412 9.25448H29.8058V0.6459ZM32.0482 4.03399H33.7847C34.1703 4.03399 34.7008 3.82894 34.7008 3.21412C34.7008 2.58712 34.2546 2.38229 33.7847 2.38229H32.0482V4.03399ZM32.0482 7.45807H33.8448C34.5561 7.45807 35.0504 7.20497 35.0504 6.4936C35.0504 5.73396 34.52 5.48075 33.8448 5.48075H32.0482V7.45807ZM40.8491 0.6459H43.1276L46.3468 9.25448H44.0078L43.4774 7.71129H40.4752L39.9326 9.25448H37.6298L40.8491 0.6459ZM40.9936 6.04762H42.9467L41.9942 3.03342H41.9703L40.9936 6.04762ZM46.9729 0.6459H49.276L52.2661 5.95097H52.29V0.6459H54.4003V9.25448H52.0972L49.1071 3.88939H49.0832V9.25448H46.9729V0.6459ZM55.9307 0.6459H58.1733V3.94962L61.0066 0.6459H63.7918L60.6087 4.03399L64.1897 9.25459H61.4047L59.0897 5.63774L58.1734 6.60232V9.2547H55.9308V0.646005L55.9307 0.6459Z" fill="#006E90"/>
<path d="M24.8906 0.644867H2.10938C0.946318 0.644867 0 1.53204 0 2.62241V16.8607C0 17.9511 0.946318 18.8382 2.10938 18.8382H24.8906C26.0537 18.8382 27 17.9511 27 16.8607V2.62241C27 1.53204 26.0537 0.644867 24.8906 0.644867Z" fill="#5D647F"/>
<path d="M9.28113 8.55508H4.21863C3.75261 8.55508 3.37488 8.20096 3.37488 7.76407V4.60001C3.37488 4.16312 3.75261 3.80899 4.21863 3.80899H9.28113C9.74714 3.80899 10.1249 4.16312 10.1249 4.60001V7.76407C10.1249 8.20096 9.74714 8.55508 9.28113 8.55508Z" fill="#FFD100"/>
<path d="M6.328 13.6966H4.21863C3.75261 13.6966 3.37488 13.3424 3.37488 12.9055V12.51C3.37488 12.0732 3.75261 11.719 4.21863 11.719H6.328C6.79402 11.719 7.17175 12.0732 7.17175 12.51V12.9055C7.17175 13.3424 6.79402 13.6966 6.328 13.6966ZM11.8124 13.6966H9.703C9.23699 13.6966 8.85925 13.3424 8.85925 12.9055V12.51C8.85925 12.0732 9.23699 11.719 9.703 11.719H11.8124C12.2784 11.719 12.6561 12.0732 12.6561 12.51V12.9055C12.6561 13.3424 12.2784 13.6966 11.8124 13.6966ZM17.2968 13.6966H15.1874C14.7214 13.6966 14.3436 13.3424 14.3436 12.9055V12.51C14.3436 12.0732 14.7214 11.719 15.1874 11.719H17.2968C17.7628 11.719 18.1405 12.0732 18.1405 12.51V12.9055C18.1405 13.3424 17.7628 13.6966 17.2968 13.6966ZM22.7811 13.6966H20.6718C20.2057 13.6966 19.828 13.3424 19.828 12.9055V12.51C19.828 12.0732 20.2057 11.719 20.6718 11.719H22.7811C23.2471 11.719 23.6249 12.0732 23.6249 12.51V12.9055C23.6249 13.3424 23.2471 13.6966 22.7811 13.6966Z" fill="#B8BAC0"/>
<path d="M12.2343 16.0695H3.79675C3.56356 16.0695 3.37488 15.8925 3.37488 15.674C3.37488 15.4556 3.56356 15.2785 3.79675 15.2785H12.2343C12.4674 15.2785 12.6561 15.4556 12.6561 15.674C12.6561 15.8925 12.4674 16.0695 12.2343 16.0695ZM17.7186 16.0695H13.9218C13.6886 16.0695 13.4999 15.8925 13.4999 15.674C13.4999 15.4556 13.6886 15.2785 13.9218 15.2785H17.7186C17.9518 15.2785 18.1405 15.4556 18.1405 15.674C18.1405 15.8925 17.9518 16.0695 17.7186 16.0695Z" fill="#8A8895"/>
<path d="M10.125 6.57755H5.90625V5.78653H10.125V4.99551H5.90625V3.80899H5.0625V8.55508H5.90625V7.36856H10.125V6.57755Z" fill="#FF9500"/>
<path d="M21.0937 8.55508C22.4917 8.55508 23.625 7.49264 23.625 6.18204C23.625 4.87144 22.4917 3.80899 21.0937 3.80899C19.6958 3.80899 18.5625 4.87144 18.5625 6.18204C18.5625 7.49264 19.6958 8.55508 21.0937 8.55508Z" fill="#FF4F19"/>
</svg>
