<svg width="80" height="20" viewBox="0 0 80 20" fill="none" xmlns="http://www.w3.org/2000/svg">
<path d="M17.1852 14.6484L17.3186 14.7018V14.8352C17.3186 14.8886 17.3186 14.942 17.3453 14.9686H17.3186V16.543H17.1318L15.9043 16.4897H15.8242C15.931 16.1427 16.011 15.7424 16.011 15.3689C16.011 15.102 15.9843 14.8352 15.931 14.5683H16.0377L17.1852 14.6484Z" fill="#F4B844"/>
<path d="M14.8636 12.7003C15.6108 12.8871 16.358 12.9672 17.1318 12.9672C19.0265 12.9672 20.6543 12.4602 20.761 11.8731V13.7944C18.9464 13.8211 17.452 14.2481 17.2652 14.7818L17.1318 14.7284L16.0911 14.6751H15.9844C15.8242 13.9278 15.424 13.2341 14.8369 12.727L14.8636 12.7003Z" fill="#E5A739"/>
<path d="M23.6435 5.22847C23.6169 4.42793 22.9497 3.76076 22.1492 3.78747H20.3079V9.97849L20.4947 10.5656V14.0614H20.8149C21.7755 14.0614 22.7095 14.1948 23.6168 14.4883H23.6435V5.25514L23.6435 5.22847Z" fill="#2BA037"/>
<path d="M3.0689 12.4336H10.1672L10.2472 12.8071C9.50003 13.4476 9.07307 14.4083 9.07307 15.3957C9.07307 15.5824 9.09973 15.7426 9.12645 15.9294H4.53656C3.73602 15.9294 3.06885 15.2622 3.06885 14.4617L3.0689 12.4336Z" fill="#2BA037"/>
<path d="M19.1068 0.53186H1.49438C0.667125 0.53186 0.0266625 1.17227 0 1.99952V11.2327C0.0266625 12.0332 0.693838 12.7004 1.49438 12.6737H10.1405L10.2205 12.7804C10.861 12.1933 11.6882 11.8731 12.5422 11.8731C12.8891 11.8731 13.236 11.9265 13.5829 12.0333L20.5745 9.97846V1.99952C20.5745 1.19898 19.9073 0.53186 19.1068 0.53186Z" fill="#3BB54A"/>
<path d="M10.3002 2.77338C12.4351 2.77338 14.143 4.48126 14.143 6.6161C14.143 8.75094 12.4351 10.4588 10.3002 10.4588C8.1654 10.4588 6.45752 8.75094 6.45752 6.6161C6.45757 4.48126 8.1654 2.77338 10.3002 2.77338Z" fill="#2BA037"/>
<path d="M2.69511 4.1877C3.28462 4.1877 3.76253 3.7098 3.76253 3.12028C3.76253 2.53076 3.28462 2.05286 2.69511 2.05286C2.10559 2.05286 1.62769 2.53076 1.62769 3.12028C1.62769 3.7098 2.10559 4.1877 2.69511 4.1877Z" fill="#2BA037"/>
<path d="M24.417 16.6765V18.4378C24.417 19.0515 22.8159 19.5319 20.8412 19.5319C18.8665 19.5319 17.292 19.0515 17.292 18.4378V16.8367C17.5855 17.3704 19.0533 17.7707 20.8145 17.7707C22.5757 17.7707 24.417 17.2636 24.417 16.6765Z" fill="#E5A739"/>
<path d="M24.417 14.9686V16.6765C24.417 17.2636 22.7625 17.7706 20.8145 17.7706C18.8664 17.7706 17.5855 17.3703 17.292 16.8366V15.0487C17.5055 15.5824 18.9999 16.0093 20.8145 16.0093C22.629 16.0093 24.2836 15.5557 24.417 14.9686Z" fill="#F4B844"/>
<path d="M24.4171 14.9687C24.2836 15.5558 22.7092 16.0094 20.8145 16.0094C18.9198 16.0094 17.5055 15.5824 17.292 15.0487C17.2654 14.9953 17.2654 14.9687 17.2654 14.9153V14.7819C17.4522 14.2482 18.9465 13.8212 20.7612 13.7945H20.8146C21.7752 13.7945 22.7092 13.9279 23.6165 14.2215C24.1235 14.4082 24.4171 14.6484 24.4171 14.9153V14.9687Z" fill="#FEDB41"/>
<path d="M17.2923 16.8367V18.251H17.1055C16.385 18.251 15.6645 18.171 14.944 18.0108H14.8906C15.371 17.5839 15.7179 17.0502 15.878 16.4364H15.958L17.1055 16.4898H17.2923V16.8367Z" fill="#E5A739"/>
<path d="M20.7608 10.2987V11.8731C20.6541 12.4602 19.0263 12.9672 17.1316 12.9672C16.3577 12.9672 15.6105 12.8872 14.8633 12.7004H14.8367C14.4898 12.4069 14.0628 12.1667 13.6091 12.0333V10.1653C13.7159 10.7257 15.2636 11.1794 17.1583 11.1794C19.053 11.1794 20.4406 10.8057 20.7608 10.2987Z" fill="#F4B844"/>
<path d="M20.7618 10.3254C20.4416 10.8324 18.8671 11.206 17.1326 11.206C15.398 11.206 13.6901 10.7524 13.5834 10.192C13.5567 10.1653 13.5567 10.1386 13.5567 10.112C13.5567 9.52488 15.1579 9.01788 17.1326 9.01788C18.6537 9.01788 20.0413 9.31143 20.575 9.73838C20.7084 9.81842 20.8152 9.95189 20.8152 10.112C20.8152 10.192 20.8152 10.272 20.7618 10.3254ZM16.1185 14.6751C16.1452 14.9153 16.1719 15.1555 16.1719 15.3956C16.1719 15.7426 16.1185 16.0895 16.0385 16.4363C15.8517 17.0501 15.5048 17.6105 14.9978 18.0641C13.5301 19.3984 11.2352 19.2917 9.90085 17.824C9.42052 17.2903 9.10031 16.6498 8.99356 15.956C8.9669 15.7692 8.94019 15.5824 8.94019 15.4223C8.94019 14.4083 9.36714 13.4209 10.141 12.7271C11.1017 11.8732 12.4093 11.5796 13.6368 11.9799C14.1172 12.1133 14.5441 12.3535 14.9177 12.6737C15.5314 13.1808 15.9584 13.8746 16.1185 14.6751Z" fill="#FEDB41"/>
<path d="M12.5684 13.6077C13.5558 13.6077 14.3564 14.4082 14.3564 15.3956C14.3564 16.383 13.5558 17.1835 12.5684 17.1835C11.5811 17.1835 10.7805 16.383 10.7805 15.3956C10.7805 14.4082 11.5811 13.6077 12.5684 13.6077Z" fill="#F4B844"/>
<path d="M35.5303 5.62943C35.0973 5.62943 34.7108 5.7222 34.3706 5.90775C34.0304 6.08711 33.7397 6.34997 33.4985 6.69632C33.2573 7.04267 33.0718 7.46634 32.9419 7.96732C32.8182 8.46211 32.7563 9.02493 32.7563 9.65579C32.7563 10.5093 32.8646 11.2268 33.0811 11.8081C33.2975 12.3895 33.6253 12.8286 34.0645 13.1255C34.5098 13.4224 35.0664 13.5708 35.7344 13.5708C36.3405 13.5708 36.9219 13.4873 37.4785 13.3203C38.0413 13.1534 38.6073 12.9523 39.1763 12.7173V15.8159C38.5763 16.0819 37.9609 16.2736 37.3301 16.3911C36.7054 16.5087 36.0405 16.5674 35.3354 16.5674C33.8634 16.5674 32.6574 16.2767 31.7173 15.6953C30.7834 15.1078 30.0938 14.2945 29.6484 13.2554C29.2093 12.2163 28.9897 11.0103 28.9897 9.63724C28.9897 8.61054 29.132 7.67044 29.4165 6.81693C29.7072 5.96341 30.1309 5.22431 30.6875 4.59964C31.2441 3.96878 31.9307 3.48327 32.7471 3.1431C33.5697 2.79674 34.5098 2.62357 35.5674 2.62357C36.223 2.62357 36.9126 2.70088 37.6362 2.8555C38.366 3.00394 39.0773 3.24515 39.77 3.57913L38.6475 6.46439C38.1527 6.22936 37.6517 6.03144 37.1445 5.87064C36.6374 5.70983 36.0993 5.62943 35.5303 5.62943ZM50.1514 16.3819L49.4834 13.8399H45.0767L44.3901 16.3819H40.3638L44.7891 2.76273H49.6782L54.1592 16.3819H50.1514ZM48.7227 10.834L48.1382 8.60745C48.0763 8.36624 47.9867 8.02298 47.8691 7.57767C47.7516 7.12617 47.6341 6.6623 47.5166 6.18607C47.4053 5.70364 47.3187 5.30781 47.2568 4.99857C47.2012 5.30781 47.1208 5.69127 47.0156 6.14896C46.9167 6.60045 46.8115 7.04886 46.7002 7.49417C46.5951 7.93948 46.5023 8.31058 46.4219 8.60745L45.8374 10.834H48.7227ZM64.5034 12.2627C64.5034 12.9987 64.3179 13.6976 63.9468 14.3594C63.5757 15.015 62.9974 15.5469 62.2119 15.9551C61.4326 16.3633 60.4245 16.5674 59.1875 16.5674C58.569 16.5674 58.0247 16.5396 57.5547 16.4839C57.0908 16.4283 56.6579 16.3386 56.2559 16.2149C55.8538 16.085 55.4364 15.918 55.0034 15.7139V12.4483C55.7394 12.8194 56.4816 13.1039 57.23 13.3018C57.9784 13.4935 58.6556 13.5894 59.2617 13.5894C59.6266 13.5894 59.9235 13.5461 60.1523 13.4595C60.3874 13.3729 60.5605 13.2554 60.6719 13.107C60.7832 12.9523 60.8389 12.7761 60.8389 12.5782C60.8389 12.3431 60.7554 12.1452 60.5884 11.9844C60.4276 11.8174 60.1678 11.6442 59.8091 11.4649C59.4504 11.2855 58.9772 11.0629 58.3896 10.7969C57.8887 10.5619 57.4341 10.3207 57.0259 10.0733C56.6239 9.82588 56.2775 9.54446 55.9868 9.22903C55.7023 8.90742 55.4827 8.53323 55.3281 8.10648C55.1735 7.67972 55.0962 7.17565 55.0962 6.59427C55.0962 5.7222 55.3096 4.99238 55.7363 4.40482C56.1693 3.81107 56.7692 3.36575 57.5361 3.06888C58.3092 2.772 59.1999 2.62357 60.208 2.62357C61.0924 2.62357 61.8872 2.72252 62.5923 2.92044C63.3035 3.11836 63.9406 3.34411 64.5034 3.59769L63.3809 6.42728C62.7995 6.16133 62.2274 5.95104 61.6646 5.79642C61.1017 5.63561 60.5791 5.55521 60.0967 5.55521C59.7812 5.55521 59.5215 5.59541 59.3174 5.67581C59.1195 5.75003 58.971 5.85208 58.8721 5.98196C58.7793 6.11185 58.7329 6.26028 58.7329 6.42728C58.7329 6.63756 58.8133 6.8262 58.9741 6.99319C59.1411 7.16019 59.4163 7.34264 59.7998 7.54056C60.1895 7.73229 60.7183 7.98278 61.3862 8.29202C62.048 8.5889 62.6108 8.91051 63.0747 9.25687C63.5386 9.59704 63.8911 10.0083 64.1323 10.4908C64.3797 10.967 64.5034 11.5576 64.5034 12.2627ZM78.2246 16.3819H74.5415V10.8526H70.2832V16.3819H66.6001V2.81839H70.2832V7.84671H74.5415V2.81839H78.2246V16.3819Z" fill="#237804"/>
</svg>
