<svg width="76" height="19" viewBox="0 0 76 19" fill="none" xmlns="http://www.w3.org/2000/svg">
<path d="M21.6909 2.10574C21.3912 1.56084 20.9507 1.1064 20.4154 0.789887C19.8801 0.473373 19.2696 0.306397 18.6477 0.306396H1.73654C0.77745 0.306396 0 1.08385 0 2.04294V2.91121L11.067 6.38429L22.134 2.91121L21.6909 2.10574Z" fill="#FCC95D"/>
<path d="M25.2955 12.1329L28.7686 13.8694V15.1719C28.7686 15.287 28.7229 15.3974 28.6415 15.4788C28.56 15.5602 28.4496 15.606 28.3345 15.606H27.0321L25.2955 12.1329Z" fill="#5E8ABD"/>
<path d="M6.51203 12.1329H1.73654L0 13.8694V15.1719C0 15.287 0.0457392 15.3974 0.127155 15.4788C0.208572 15.5602 0.318996 15.606 0.434136 15.606H6.51203V12.1329ZM22.2567 12.1329H27.0322V15.606H22.2567V12.1329Z" fill="#5E9FD1"/>
<path d="M27.8088 9.91649L26.0723 9.04822L27.0322 13.8696H28.7687V11.4697C28.7687 11.1472 28.6789 10.8311 28.5094 10.5567C28.3399 10.2824 28.0973 10.0607 27.8088 9.91649Z" fill="#FCC95D"/>
<path d="M26.0723 9.04814L25.2956 8.65984L22.1339 2.91119H0V13.8694H6.51203V15.606H22.2567V13.8694H27.0322V10.6013C27.0322 10.2788 26.9424 9.9627 26.7728 9.68837C26.6033 9.41405 26.3607 9.19236 26.0723 9.04814Z" fill="#FCE06F"/>
<path d="M6.51209 18.6449C8.19046 18.6449 9.55104 17.2843 9.55104 15.6059C9.55104 13.9275 8.19046 12.567 6.51209 12.567C4.83373 12.567 3.47314 13.9275 3.47314 15.6059C3.47314 17.2843 4.83373 18.6449 6.51209 18.6449Z" fill="#5C6B96"/>
<path d="M6.51212 16.9084C7.23142 16.9084 7.81453 16.3253 7.81453 15.606C7.81453 14.8867 7.23142 14.3036 6.51212 14.3036C5.79282 14.3036 5.20972 14.8867 5.20972 15.606C5.20972 16.3253 5.79282 16.9084 6.51212 16.9084Z" fill="white"/>
<path d="M22.2567 18.6449C23.9351 18.6449 25.2957 17.2843 25.2957 15.6059C25.2957 13.9275 23.9351 12.567 22.2567 12.567C20.5784 12.567 19.2178 13.9275 19.2178 15.6059C19.2178 17.2843 20.5784 18.6449 22.2567 18.6449Z" fill="#5C6B96"/>
<path d="M22.2568 16.9084C22.9761 16.9084 23.5592 16.3253 23.5592 15.606C23.5592 14.8867 22.9761 14.3036 22.2568 14.3036C21.5375 14.3036 20.9543 14.8867 20.9543 15.606C20.9543 16.3253 21.5375 16.9084 22.2568 16.9084Z" fill="white"/>
<path d="M21.1073 4.64774L19.1366 4.66817L18.4095 6.66398L21.332 8.65979H23.3138L21.1073 4.64774Z" fill="#4C5A80"/>
<path d="M14.3844 4.64774V8.65979H21.3319L19.1365 4.66817L14.3844 4.64774Z" fill="#5C6B96"/>
<path d="M63.0677 16.4065H61.1638V14.8017H62.8673C63.3127 14.8017 63.6735 14.4407 63.6735 13.9955C63.6735 13.5503 63.3127 13.1894 62.8673 13.1894H61.1638V11.5845H63.0676C63.2811 11.581 63.4846 11.4938 63.6344 11.3416C63.7841 11.1894 63.868 10.9844 63.868 10.7709C63.868 10.5574 63.7841 10.3525 63.6344 10.2003C63.4846 10.0481 63.2811 9.96085 63.0676 9.95738H60.3502C60.1345 9.95741 59.9276 10.0431 59.775 10.1957C59.6224 10.3483 59.5367 10.5552 59.5367 10.7709V17.2201C59.5367 17.4358 59.6224 17.6428 59.775 17.7953C59.9276 17.9479 60.1345 18.0336 60.3502 18.0336H63.0677C63.2835 18.0336 63.4904 17.9478 63.6429 17.7953C63.7955 17.6427 63.8813 17.4358 63.8814 17.2201C63.8813 17.0043 63.7956 16.7974 63.643 16.6448C63.4904 16.4923 63.2835 16.4065 63.0677 16.4065ZM58.2397 10.0178C58.0368 9.95042 57.8154 9.96639 57.6243 10.0622C57.4332 10.158 57.288 10.3258 57.2206 10.5287L55.7282 15.0205L54.1614 10.5065C54.1273 10.4057 54.0736 10.3127 54.0034 10.2327C53.9332 10.1528 53.8478 10.0875 53.7522 10.0407C53.6567 9.99395 53.5528 9.96654 53.4466 9.9601C53.3404 9.95366 53.2339 9.9683 53.1334 10.0032C53.0329 10.0381 52.9403 10.0925 52.8609 10.1634C52.7815 10.2343 52.7169 10.3202 52.6709 10.4161C52.6249 10.5121 52.5983 10.6162 52.5927 10.7224C52.5872 10.8287 52.6027 10.935 52.6384 11.0352L54.8451 17.3929C54.911 17.5781 55.0326 17.7384 55.1931 17.8517C55.3537 17.9651 55.5454 18.026 55.7419 18.0261H55.7481C56.1529 18.0235 56.5125 17.7643 56.6449 17.3754L58.7505 11.0369C58.8179 10.834 58.8019 10.6126 58.7061 10.4215C58.6103 10.2304 58.4425 10.0852 58.2397 10.0178ZM75.6337 10.1116C75.4546 9.99499 75.2364 9.95431 75.0272 9.99854C74.818 10.0428 74.635 10.1683 74.5183 10.3474L73.1498 12.4496L71.766 10.3301C71.7081 10.2415 71.6333 10.1651 71.5459 10.1054C71.4585 10.0456 71.3602 10.0036 71.2566 9.98189C71.153 9.96013 71.0461 9.95899 70.942 9.97854C70.838 9.99809 70.7388 10.0379 70.6502 10.0958C70.5615 10.1537 70.4851 10.2285 70.4254 10.3159C70.3656 10.4033 70.3237 10.5016 70.3019 10.6052C70.2801 10.7088 70.279 10.8157 70.2986 10.9197C70.3181 11.0238 70.358 11.123 70.4158 11.2116L72.3447 14.1657V17.22C72.3447 17.6652 72.7055 18.0261 73.1508 18.0261C73.5961 18.0261 73.957 17.6652 73.957 17.22V14.1649L75.8694 11.227C75.9861 11.0478 76.0268 10.8297 75.9826 10.6205C75.9384 10.4113 75.8129 10.2283 75.6337 10.1116ZM70.0476 12.4471C70.0476 11.0783 68.8916 9.9649 67.4705 9.9648H65.7557C65.5419 9.9648 65.3369 10.0497 65.1857 10.2009C65.0345 10.352 64.9496 10.557 64.9496 10.7708L64.9485 17.22C64.9484 17.3554 64.9825 17.4887 65.0475 17.6075C65.1126 17.7263 65.2065 17.8268 65.3207 17.8998C65.4348 17.9727 65.5655 18.0156 65.7007 18.0247C65.8358 18.0337 65.9711 18.0086 66.094 17.9515C66.2334 17.8868 66.3514 17.7836 66.4341 17.654C66.5168 17.5244 66.5608 17.3739 66.5608 17.2202L66.5611 15.3949L68.6362 17.7527C68.7118 17.8388 68.8049 17.9077 68.9094 17.9549C69.0138 18.0021 69.1271 18.0264 69.2417 18.0262C69.3967 18.0262 69.5484 17.9814 69.6787 17.8973C69.8089 17.8132 69.9121 17.6933 69.976 17.552C70.0398 17.4107 70.0616 17.254 70.0386 17.1007C70.0156 16.9473 69.9489 16.8039 69.8465 16.6875L68.2073 14.825C68.6037 14.71 68.9671 14.5026 69.2677 14.2197C69.7707 13.7471 70.0476 13.1176 70.0476 12.4471ZM68.1638 13.0447C67.9797 13.2176 67.727 13.317 67.4706 13.317C67.2584 13.317 66.8972 13.3185 66.5616 13.3201L66.5619 11.5771H67.4707C67.9936 11.5771 68.4354 11.9754 68.4354 12.447C68.4353 12.6678 68.3389 12.8801 68.1638 13.0447ZM43.7232 16.4065H41.8193V14.8017H43.5227C43.968 14.8017 44.3289 14.4407 44.3289 13.9955C44.3289 13.5503 43.968 13.1894 43.5227 13.1894H41.8193V11.5845H43.7231C43.9365 11.581 44.1401 11.4938 44.2898 11.3416C44.4396 11.1894 44.5235 10.9844 44.5235 10.7709C44.5235 10.5574 44.4396 10.3525 44.2898 10.2003C44.1401 10.0481 43.9365 9.96085 43.7231 9.95738H41.0057C40.79 9.95741 40.583 10.0431 40.4305 10.1957C40.2779 10.3483 40.1922 10.5552 40.1922 10.7709V17.2201C40.1922 17.4358 40.2779 17.6428 40.4305 17.7953C40.583 17.9479 40.79 18.0336 41.0057 18.0336H43.7232C43.9389 18.0336 44.1458 17.9478 44.2984 17.7953C44.451 17.6427 44.5368 17.4358 44.5368 17.2201C44.5368 17.0043 44.4511 16.7974 44.2985 16.6448C44.1459 16.4922 43.939 16.4065 43.7232 16.4065ZM51.0352 9.9648C50.8214 9.9648 50.6164 10.0497 50.4652 10.2009C50.314 10.3521 50.2291 10.5571 50.2291 10.7709V17.2201C50.2291 17.6653 50.5899 18.0262 51.0352 18.0262C51.4805 18.0262 51.8414 17.6653 51.8414 17.2201V10.7709C51.8414 10.5571 51.7564 10.3521 51.6052 10.2009C51.4541 10.0497 51.249 9.9648 51.0352 9.9648ZM35.7143 9.9648H33.8878C33.674 9.9648 33.469 10.0497 33.3178 10.2009C33.1666 10.3521 33.0817 10.5571 33.0817 10.7709V17.2201C33.0816 17.3259 33.1025 17.4308 33.143 17.5286C33.1835 17.6264 33.2429 17.7153 33.3177 17.7902C33.3926 17.865 33.4815 17.9244 33.5793 17.9649C33.6771 18.0054 33.7819 18.0262 33.8878 18.0262C33.9466 18.026 35.2615 18.021 35.7818 18.0119C37.7188 17.9781 39.1248 16.2889 39.1248 13.9955C39.1248 11.5846 37.7543 9.9648 35.7143 9.9648ZM35.7537 16.3999C35.5117 16.404 35.0809 16.4075 34.694 16.4099V11.5771H35.7143C37.0401 11.5771 37.5124 12.8264 37.5124 13.9955C37.5125 15.177 36.9687 16.3787 35.7537 16.3999ZM48.6705 16.4139H47.2165V10.7709C47.2165 10.3257 46.8556 9.9648 46.4103 9.9648C45.965 9.9648 45.6042 10.3257 45.6042 10.7709V17.2201C45.6042 17.4339 45.6891 17.6389 45.8403 17.7901C45.9915 17.9413 46.1965 18.0262 46.4103 18.0262H48.6705C49.1158 18.0262 49.4767 17.6653 49.4767 17.2201C49.4767 16.7749 49.1158 16.4139 48.6705 16.4139ZM50.0622 8.36788C51.4213 8.36788 52.5626 7.50058 52.7759 6.30566C52.9365 5.40644 52.5282 4.23183 50.9012 3.63163C50.109 3.33949 49.3716 3.02122 49.1452 2.92212C48.9696 2.78099 48.9755 2.5844 48.9873 2.50239C49.0036 2.38856 49.0863 2.11039 49.5001 1.98571C50.4094 1.71183 51.2519 2.37749 51.275 2.39608C51.4392 2.5331 51.651 2.59931 51.864 2.58014C52.0769 2.56097 52.2735 2.458 52.4105 2.29387C52.5475 2.12974 52.6138 1.9179 52.5946 1.70496C52.5754 1.49202 52.4724 1.29541 52.3083 1.15839C52.2474 1.10723 50.7974 -0.0889826 49.0352 0.441997C48.1448 0.710173 47.5149 1.41195 47.3913 2.27334C47.2753 3.08163 47.6257 3.85918 48.3058 4.30245C48.3413 4.32567 48.3787 4.34598 48.4175 4.36329C48.4548 4.37995 49.3429 4.77528 50.3431 5.14417C50.6259 5.24843 51.2743 5.54273 51.1886 6.02212C51.1242 6.38251 50.6853 6.75538 50.0622 6.75538C49.4211 6.75538 48.8044 6.49699 48.4121 6.06414C48.2675 5.90943 48.0679 5.81777 47.8564 5.80897C47.6449 5.80017 47.4384 5.87493 47.2815 6.01711C47.1246 6.15928 47.0299 6.35746 47.0179 6.56884C47.0059 6.78022 47.0776 6.98783 47.2174 7.14684C47.9102 7.9115 48.9737 8.36788 50.0622 8.36788ZM44.5631 6.7843L44.9639 7.84636C45.0218 7.99966 45.1249 8.1317 45.2597 8.22491C45.3945 8.31811 45.5544 8.36806 45.7183 8.3681C45.8487 8.36807 45.9771 8.33642 46.0926 8.27584C46.2081 8.21526 46.3071 8.12757 46.3813 8.02029C46.4554 7.91301 46.5024 7.78935 46.5183 7.65991C46.5341 7.53047 46.5183 7.39911 46.4723 7.27712L44.0726 0.91859C44.0042 0.738286 43.8824 0.583124 43.7235 0.473769C43.5646 0.364413 43.3762 0.306053 43.1833 0.306459C42.9908 0.306049 42.8027 0.36418 42.644 0.473142C42.4853 0.582104 42.3635 0.736745 42.2947 0.916547L39.8732 7.27486C39.7971 7.47467 39.8035 7.69651 39.891 7.89159C39.9785 8.08668 40.1399 8.23902 40.3397 8.31511C40.5395 8.39114 40.7613 8.38472 40.9563 8.29726C41.1514 8.20981 41.3038 8.04847 41.3799 7.84872L41.7852 6.7844L44.5631 6.7843ZM43.1804 3.12054L43.9546 5.17201H42.3992L43.1804 3.12054ZM54.6891 8.36788C54.9029 8.36788 55.108 8.28295 55.2591 8.13177C55.4103 7.98059 55.4953 7.77554 55.4953 7.56174V5.03271H58.3459V7.56174C58.3459 8.00695 58.7067 8.36788 59.152 8.36788C59.5973 8.36788 59.9582 8.00695 59.9582 7.56174V1.1126C59.9582 0.667395 59.5973 0.306459 59.152 0.306459C58.7067 0.306459 58.3459 0.667395 58.3459 1.1126V3.42042H55.4953V1.1126C55.4953 0.667395 55.1344 0.306459 54.6891 0.306459C54.2438 0.306459 53.883 0.667395 53.883 1.1126V7.56174C53.883 7.77554 53.9679 7.98059 54.1191 8.13177C54.2703 8.28295 54.4753 8.36788 54.6891 8.36788ZM39.096 6.0046C39.0148 5.93657 38.9211 5.8852 38.8201 5.85339C38.7192 5.82159 38.6129 5.80999 38.5074 5.81925C38.402 5.82852 38.2994 5.85846 38.2055 5.90738C38.1116 5.95629 38.0283 6.02322 37.9603 6.10434C37.9058 6.16942 37.8467 6.23042 37.7833 6.28685C37.4643 6.57094 37.0567 6.71497 36.5719 6.71497C35.2608 6.71497 34.194 5.64817 34.194 4.33695C34.194 3.02574 35.2608 1.95905 36.5719 1.95905C37.0486 1.95905 37.5081 2.09932 37.9009 2.3647C37.9886 2.42436 38.0873 2.46611 38.1912 2.48758C38.295 2.50904 38.4021 2.5098 38.5063 2.48979C38.6105 2.46978 38.7097 2.42941 38.7982 2.37099C38.8868 2.31257 38.9629 2.23725 39.0223 2.14934C39.0817 2.06144 39.1231 1.96268 39.1443 1.85872C39.1654 1.75477 39.1658 1.64767 39.1455 1.54355C39.1251 1.43944 39.0844 1.34037 39.0257 1.25201C38.967 1.16365 38.8915 1.08775 38.8034 1.02865C38.1445 0.583064 37.3671 0.345517 36.5718 0.346766C34.3717 0.346873 32.5818 2.13694 32.5818 4.33717C32.5818 6.5374 34.3717 8.32747 36.572 8.32747C37.4516 8.32747 38.2412 8.03822 38.8556 7.49112C38.9773 7.38261 39.091 7.26539 39.1957 7.14039C39.3331 6.97654 39.3997 6.76483 39.381 6.55184C39.3623 6.33885 39.2598 6.142 39.096 6.0046ZM67.3052 8.36788C68.6387 8.36788 69.7237 7.28292 69.7237 5.94946C69.7237 4.61599 68.6387 3.53103 67.3052 3.53103C65.9718 3.53103 64.8868 4.61599 64.8868 5.94946C64.8868 7.28292 65.9718 8.36788 67.3052 8.36788ZM67.3052 5.14331C67.7498 5.14331 68.1114 5.505 68.1114 5.94946C68.1114 6.39391 67.7498 6.7556 67.3052 6.7556C66.8607 6.7556 66.4991 6.39391 66.4991 5.94946C66.4991 5.505 66.8607 5.14331 67.3052 5.14331ZM73.2169 3.53103C72.8441 3.53103 72.4907 3.61594 72.1749 3.76739C72.0622 3.6546 71.9185 3.57777 71.7621 3.54662C71.6058 3.51547 71.4436 3.5314 71.2963 3.59239C71.149 3.65339 71.0231 3.7567 70.9344 3.88927C70.8458 4.02184 70.7985 4.17771 70.7985 4.33717V7.56174C70.7985 8.00695 71.1594 8.36788 71.6047 8.36788C72.05 8.36788 72.4108 8.00695 72.4108 7.56174V5.94946C72.4108 5.505 72.7724 5.14331 73.2169 5.14331C73.6615 5.14331 74.0231 5.505 74.0231 5.94946V7.54637C74.0231 7.99157 74.3839 8.35251 74.8292 8.35251C75.2745 8.35251 75.6354 7.99157 75.6354 7.54637V5.94946C75.6354 4.61588 74.5504 3.53103 73.2169 3.53103Z" fill="#5E9FD1"/>
</svg>
