<svg width="32" height="20" viewBox="0 0 32 20" fill="none" xmlns="http://www.w3.org/2000/svg">
<rect width="32" height="20" rx="3" fill="white"/>
<path d="M11.7114 6C10.745 6 10 6.62416 10 7.71141V10.8121C10.0805 11.1946 10.4832 11.4765 10.9262 11.4765C11.4295 11.4765 11.7919 11.1141 11.7919 10.6711V9.10067H13.1611V10.651C13.1611 11.5168 12.0537 11.9597 11.2483 11.9597C10.7852 11.9597 10.3423 11.8188 10.0201 11.5772V15H12.1946C12.9597 15 13.8456 14.2752 13.8456 13.349V6H11.7114Z" fill="#1174CE"/>
<path d="M10 7.71141V10.8121C10.0805 11.1946 10.4832 11.4765 10.9262 11.4765C11.4295 11.4765 11.7919 11.1141 11.7919 10.6711V9.10067H13.1611V10.651C13.1611 11.5168 12.0537 11.9597 11.2483 11.9597C10.7852 11.9597 10.3423 11.8188 10.0201 11.5772V15H12.1946C12.9597 15 13.8456 14.2752 13.8456 13.349V6" fill="#0F549D"/>
<path d="M13.1409 9.10059V10.6509C13.1409 11.5167 12.0336 11.9596 11.2282 11.9596C10.7651 11.9596 10.3221 11.8187 10 11.5771V14.9999H12.1745C12.9396 14.9999 13.8255 14.2751 13.8255 13.3489" fill="#02375E"/>
<path d="M19.3221 11.4362H20.2685C20.5101 11.4362 20.7315 11.2148 20.7315 10.9732C20.7315 10.7315 20.5101 10.5101 20.2685 10.5101H19.3221V11.4362Z" fill="#146643"/>
<path d="M20.3893 6C19.4027 6 18.6778 6.62416 18.6778 7.69127V9.10067H21.2148C21.5772 9.10067 21.8792 9.40268 21.8792 9.7651C21.8792 10.1275 21.5772 10.4295 21.2148 10.4295C21.6174 10.4295 21.9396 10.7114 21.9396 11.0738C21.9396 11.4362 21.6376 11.7181 21.2148 11.7181H18.6577V15H20.8322C21.5973 15 22.4832 14.2752 22.4832 13.349V6H20.3893Z" fill="#1BCC38"/>
<path d="M18.6577 7.71141V9.10067H21.1946C21.557 9.10067 21.8591 9.40268 21.8591 9.7651C21.8591 10.1275 21.557 10.4295 21.1946 10.4295C21.5973 10.4295 21.9195 10.7114 21.9195 11.0738C21.9195 11.4362 21.6174 11.7181 21.1946 11.7181H18.6577V15H20.8322C21.5973 15 22.4832 14.2752 22.4832 13.349V6" fill="#329947"/>
<path d="M21.8591 9.76506C21.8591 10.1275 21.557 10.4295 21.1946 10.4295C21.5973 10.4295 21.9195 10.7114 21.9195 11.0738C21.9195 11.4362 21.6174 11.7181 21.1946 11.7181H18.6577V15H20.8322C21.5973 15 22.4832 14.2751 22.4832 13.349M20.7114 9.84559C20.7114 9.60398 20.4899 9.38251 20.2483 9.38251H19.3221V10.2885H20.2685C20.5101 10.2885 20.7114 10.0872 20.7114 9.84559Z" fill="#146643"/>
<path d="M16.0201 6C15.0335 6 14.3087 6.62416 14.3087 7.69127V9.42282C14.5503 9.22148 14.8523 9.08054 15.1745 9.08054H17.4698V9.56376C16.9262 9.44295 16.4027 9.38255 16.1409 9.38255C15.5772 9.38255 15.1141 9.84564 15.1141 10.4094C15.1141 10.9732 15.5772 11.4362 16.1409 11.4362C16.4027 11.4362 16.9262 11.396 17.4698 11.2752V11.7181H15.1745C14.8523 11.7181 14.5302 11.5973 14.3087 11.3758V15H16.4832C17.2483 15 18.1342 14.2752 18.1342 13.349V6H16.0201Z" fill="#E20E37"/>
<path d="M14.3087 7.71141V9.44295C14.5503 9.24161 14.8523 9.10067 15.1745 9.10067H17.4698V9.58389C16.9262 9.46309 16.4027 9.40268 16.1409 9.40268C15.5772 9.40268 15.1141 9.86577 15.1141 10.4295C15.1141 10.9933 15.5772 11.4564 16.1409 11.4564C16.4027 11.4564 16.9262 11.4161 17.4698 11.2953V11.7181H15.1745C14.8523 11.7181 14.5302 11.5973 14.3087 11.3758V15H16.4832C17.2483 15 18.1342 14.2752 18.1342 13.349V6" fill="#B41F36"/>
<path d="M17.4698 9.10059V9.58381C16.9262 9.463 16.4027 9.4026 16.1409 9.4026C15.5772 9.4026 15.1141 9.86569 15.1141 10.4294C15.1141 10.9932 15.5772 11.4563 16.1409 11.4563C16.4027 11.4563 16.9262 11.416 17.4698 11.2952V11.718H15.1745C14.8523 11.718 14.5302 11.5972 14.3087 11.3758V14.9999H16.4832C17.2483 14.9999 18.1342 14.2751 18.1342 13.3489" fill="#720A1E"/>
<rect x="0.1" y="0.1" width="31.8" height="19.8" rx="2.9" stroke="#333333" stroke-opacity="0.08" stroke-width="0.2"/>
</svg>
