<svg width="32" height="20" viewBox="0 0 32 20" fill="none" xmlns="http://www.w3.org/2000/svg">
<rect width="32" height="20" rx="3" fill="white"/>
<path d="M13.0401 14.3232C15.2713 14.3232 17.0801 12.5144 17.0801 10.2832C17.0801 8.0519 15.2713 6.2431 13.0401 6.2431C10.8088 6.2431 9 8.0519 9 10.2832C9 12.5144 10.8088 14.3232 13.0401 14.3232Z" fill="#FFD07D"/>
<path d="M17.96 14.3232C20.1913 14.3232 22.0001 12.5144 22.0001 10.2832C22.0001 8.0519 20.1913 6.2431 17.96 6.2431C15.7287 6.2431 13.9199 8.0519 13.9199 10.2832C13.9199 12.5144 15.7287 14.3232 17.96 14.3232Z" fill="#E04F5F"/>
<rect x="0.1" y="0.1" width="31.8" height="19.8" rx="2.9" stroke="#333333" stroke-opacity="0.08" stroke-width="0.2"/>
</svg>
