<svg width="76" height="19" viewBox="0 0 76 19" fill="none" xmlns="http://www.w3.org/2000/svg">
<path d="M10.0431 4.69468L5.79668 0.463399C5.19876 -0.132698 4.20801 -0.144144 3.62107 0.463399C3.05153 1.054 3.06114 1.99072 3.64213 2.57034L7.90912 6.81901C8.19206 7.10104 8.57618 7.2599 8.97586 7.2599C9.37647 7.2599 9.76013 7.10104 10.0426 6.81901C10.63 6.23162 10.6305 5.28162 10.0431 4.69468Z" fill="url(#paint0_linear_31616_155429)"/>
<path d="M14.3129 15.3314L10.0459 11.0764C9.4571 10.489 8.50161 10.489 7.91238 11.0764C7.32315 11.6637 7.32315 12.6165 7.91238 13.2039L12.1798 17.459C12.7704 18.0363 13.7181 18.0317 14.3032 17.4484C14.8884 16.8647 14.8925 15.9202 14.3129 15.3314Z" fill="url(#paint1_linear_31616_155429)"/>
<path d="M14.3128 0.440953C14.0303 0.158471 13.6467 6.10352e-05 13.2461 6.10352e-05C12.8464 6.10352e-05 12.4627 0.158471 12.1798 0.440953L7.90913 4.69421C7.62665 4.97623 7.24253 5.13464 6.84238 5.13464C6.44224 5.13464 6.05857 4.97623 5.77563 4.69375L6.83963 5.75775L7.91645 6.83136C8.1971 7.11155 8.57802 7.26905 8.97542 7.26905C9.37282 7.26905 9.75373 7.11155 10.0348 6.83136L14.3128 2.56712C14.9016 1.97972 14.9016 1.02789 14.3128 0.440953Z" fill="url(#paint2_linear_31616_155429)"/>
<path d="M15.3768 3.63021L11.1098 7.88529C10.7284 8.26529 10.5796 8.81927 10.7192 9.33845C10.8584 9.85763 11.2654 10.2633 11.786 10.4024C12.3065 10.5412 12.8619 10.3933 13.2433 10.0133L17.5103 5.75775C17.8916 5.37775 18.0404 4.82377 17.9012 4.30459C17.7616 3.78541 17.3551 3.37977 16.8345 3.24105C16.3135 3.10187 15.7581 3.25021 15.3768 3.63021Z" fill="url(#paint3_linear_31616_155429)"/>
<path d="M13.2433 7.88529L17.5103 12.1404C17.8922 12.5204 18.0414 13.0744 17.9022 13.594C17.7631 14.1136 17.3565 14.5197 16.8355 14.6589C16.3145 14.7985 15.7587 14.6507 15.3768 14.2702L11.1021 10.0083C10.5174 9.42498 10.5174 8.47956 11.1021 7.89628L12.1789 6.82267L13.2433 5.75775C12.6546 6.34561 12.6546 7.2979 13.2433 7.88529Z" fill="url(#paint4_linear_31616_155429)"/>
<path d="M2.57542 14.2702L6.83966 10.0128C7.41927 9.42406 7.41469 8.4791 6.82959 7.89582C6.24448 7.31254 5.29722 7.30751 4.70662 7.88529L0.442838 12.1404C-0.146849 12.7273 -0.147764 13.6805 0.441007 14.2684C1.02978 14.8567 1.98573 14.8576 2.57542 14.2702Z" fill="url(#paint5_linear_31616_155429)"/>
<path d="M4.70844 10.0128L0.442826 5.75819C-0.126716 5.16759 -0.117559 4.23178 0.463429 3.65217C1.04396 3.07301 1.98297 3.0634 2.5754 3.63065L6.84972 7.89306C7.13083 8.17279 7.28878 8.55279 7.28878 8.94882C7.28878 9.3453 7.13083 9.72484 6.84972 10.005L5.7729 11.0782L4.70844 12.1404C4.99184 11.8583 5.15071 11.4756 5.15071 11.0768C5.15071 10.6776 4.99184 10.2948 4.70844 10.0128Z" fill="url(#paint6_linear_31616_155429)"/>
<path d="M12.1766 13.2039L11.1098 12.1404L10.033 11.0668C9.44746 10.4839 8.49929 10.4839 7.91464 11.0668L3.63941 15.3292C3.04972 15.9175 3.04972 16.8711 3.63941 17.459C4.23001 18.0473 5.18596 18.0469 5.77565 17.459L10.0426 13.2039C10.6323 12.6165 11.5874 12.6165 12.1766 13.2039Z" fill="url(#paint7_linear_31616_155429)"/>
<path d="M22.4393 14.3096V4.22124C22.4393 3.6984 22.8646 3.27399 23.3893 3.27399H27.5542C29.7152 3.28177 31.4769 5.00322 31.5286 7.15731C31.5781 9.37963 29.7271 11.1844 27.4979 11.1844H25.836C25.7467 11.1844 25.6611 11.1491 25.5979 11.0864C25.5352 11.0237 25.4994 10.9385 25.4994 10.8497V9.88782C25.4994 9.36452 25.9252 8.94057 26.4494 8.94057H27.5496C28.571 8.94057 29.4089 8.07298 29.3022 7.05979C29.2051 6.16336 28.447 5.48302 27.5427 5.48119H24.6538V13.6626C24.6538 14.1855 24.2285 14.6094 23.7038 14.6094H22.7364C22.5716 14.6081 22.4393 14.4739 22.4393 14.3096ZM36.8051 14.8306C34.5192 14.8026 32.681 12.9466 32.681 10.6675C32.681 8.38796 34.5192 6.53237 36.8051 6.50444H36.8271C37.6118 6.50444 38.3956 6.88948 38.7848 7.15914V6.85423C38.7848 6.8144 38.8004 6.7764 38.8287 6.74893C38.8562 6.72054 38.8947 6.70497 38.934 6.70497H40.6981C40.8629 6.70497 40.9957 6.83775 40.9957 7.00211V14.3128C40.9957 14.4767 40.8629 14.6094 40.6981 14.6094H38.9336C38.8512 14.6094 38.7843 14.5426 38.7843 14.4606V14.175C38.2908 14.4739 37.7322 14.8351 36.8051 14.8306ZM36.8051 8.67457C35.7137 8.69425 34.8387 9.58199 34.8387 10.6707C34.8387 11.759 35.7132 12.6472 36.8051 12.6664H36.8244C37.7757 12.6632 38.5934 11.9934 38.7816 11.064V10.271C38.5916 9.34346 37.7739 8.6764 36.8244 8.67457H36.8051ZM46.5904 18.3064C45.3666 18.306 44.2106 17.7479 43.4519 16.791C43.4006 16.7246 43.38 16.6399 43.3956 16.5575C43.4107 16.4751 43.4606 16.4037 43.5325 16.3606L44.3795 15.8428C44.8254 15.5631 45.3858 15.5352 45.8583 15.7691C46.0835 15.8882 46.3349 15.9504 46.5904 15.9495C47.4767 15.9413 48.2038 15.4537 48.2367 14.5765C47.2249 14.9633 46.0941 14.8873 45.1436 14.3691C45.0008 14.2908 44.8634 14.2033 44.7316 14.1076C44.0984 13.6407 43.63 12.986 43.3938 12.2365C43.2839 11.8835 43.229 11.5159 43.229 11.1464V7.6417C43.229 7.3931 43.3283 7.15502 43.5046 6.97922C43.6808 6.80341 43.9198 6.70452 44.1689 6.70497H45.1271C45.2901 6.70497 45.4224 6.83683 45.4224 6.99936V11.1043C45.4224 11.7146 45.7736 12.2864 46.3395 12.5217C46.7817 12.7058 47.2863 12.6669 47.6947 12.4164C48.1035 12.1664 48.3667 11.7356 48.402 11.2586C48.402 11.2229 48.4066 11.1867 48.4066 11.1501V7.64536C48.4066 7.12801 48.8269 6.7091 49.3456 6.7091H50.3038C50.3826 6.7091 50.4577 6.73977 50.5131 6.79471C50.5685 6.84965 50.6 6.92519 50.6 7.00302V14.5179C50.5978 16.7219 48.8008 18.3064 46.5904 18.3064Z" fill="#110649"/>
<path d="M69.5827 12.3995H75.7007C75.8655 12.3995 75.9996 12.5327 75.9996 12.6971V13.6732C75.9996 14.1901 75.5793 14.609 75.0611 14.609H67.6396C67.4744 14.609 67.3402 14.4753 67.3402 14.31V4.21071C67.3402 3.69382 67.7605 3.27536 68.2788 3.2749H75.6993C75.8646 3.2749 75.9983 3.40859 75.9983 3.57341V5.18497C75.9983 5.26418 75.9667 5.34018 75.9108 5.39558C75.855 5.45189 75.7785 5.48302 75.6993 5.48302H69.5813L69.5827 12.3995Z" fill="url(#paint8_linear_31616_155429)"/>
<path d="M71.327 7.82483H75.2771C75.3563 7.82483 75.4328 7.85596 75.4887 7.91182C75.545 7.96767 75.5766 8.04367 75.5766 8.12242V9.09898C75.5766 9.34712 75.4772 9.58473 75.3014 9.76008C75.1251 9.93543 74.8866 10.0339 74.6376 10.0339H70.7286C70.6489 10.0339 70.5729 10.0027 70.5166 9.94688C70.4603 9.89057 70.4287 9.81457 70.4287 9.73582V8.71898C70.4287 8.48182 70.5235 8.25428 70.692 8.08625C70.8604 7.91869 71.0889 7.82437 71.327 7.82483Z" fill="url(#paint9_linear_31616_155429)"/>
<path d="M62.9529 3.2337C62.8554 3.2337 62.7638 3.2804 62.7075 3.36007L59.8254 7.50802C59.7577 7.60416 59.6464 7.66139 59.5278 7.66048C59.4097 7.65956 59.2994 7.60096 59.233 7.50344L56.4494 3.36647C56.394 3.28407 56.3006 3.23462 56.2012 3.23462H54.293C54.1048 3.23462 53.9519 3.38662 53.9519 3.57433V14.2702C53.9519 14.4579 54.1048 14.6099 54.293 14.6099H55.2517C55.4898 14.6099 55.7182 14.5156 55.8867 14.348C56.0547 14.18 56.1495 13.952 56.149 13.7148V7.04607L58.9116 10.8749C59.0521 11.0741 59.2806 11.1926 59.5251 11.1926C59.7687 11.1926 59.9976 11.0736 60.1377 10.8749L62.9007 7.04561V14.2702C62.9007 14.4579 63.0531 14.6099 63.2413 14.6099H64.2C64.6958 14.6099 65.0973 14.2093 65.0973 13.7153V3.57296C65.0973 3.48276 65.0621 3.39669 64.998 3.33305C64.9339 3.26896 64.8478 3.2337 64.7572 3.2337H62.9529Z" fill="url(#paint10_linear_31616_155429)"/>
<defs>
<linearGradient id="paint0_linear_31616_155429" x1="558.353" y1="550.402" x2="73.5153" y2="67.0178" gradientUnits="userSpaceOnUse">
<stop stop-color="#00852B"/>
<stop offset="1" stop-color="#12CC24"/>
</linearGradient>
<linearGradient id="paint1_linear_31616_155429" x1="147.364" y1="154.72" x2="689.602" y2="688.105" gradientUnits="userSpaceOnUse">
<stop stop-color="#00852B"/>
<stop offset="1" stop-color="#12CC24"/>
</linearGradient>
<linearGradient id="paint2_linear_31616_155429" x1="176.839" y1="533.798" x2="679.516" y2="21.9989" gradientUnits="userSpaceOnUse">
<stop stop-color="#12CC24"/>
<stop offset="1" stop-color="#00852B"/>
</linearGradient>
<linearGradient id="paint3_linear_31616_155429" x1="681.91" y1="62.0419" x2="170.386" y2="572.056" gradientUnits="userSpaceOnUse">
<stop stop-color="#12CC24"/>
<stop offset="1" stop-color="#00852B"/>
</linearGradient>
<linearGradient id="paint4_linear_31616_155429" x1="616.595" y1="794.243" x2="117.762" y2="296.855" gradientUnits="userSpaceOnUse">
<stop stop-color="#00852B"/>
<stop offset="1" stop-color="#12CC24"/>
</linearGradient>
<linearGradient id="paint5_linear_31616_155429" x1="555.187" y1="180.038" x2="69.087" y2="664.726" gradientUnits="userSpaceOnUse">
<stop stop-color="#00852B"/>
<stop offset="1" stop-color="#12CC24"/>
</linearGradient>
<linearGradient id="paint6_linear_31616_155429" x1="118.796" y1="103.751" x2="624.544" y2="608.079" gradientUnits="userSpaceOnUse">
<stop stop-color="#00852B"/>
<stop offset="1" stop-color="#12CC24"/>
</linearGradient>
<linearGradient id="paint7_linear_31616_155429" x1="102.133" y1="617.63" x2="612.919" y2="108.351" gradientUnits="userSpaceOnUse">
<stop stop-color="#00852B"/>
<stop offset="1" stop-color="#12CC24"/>
</linearGradient>
<linearGradient id="paint8_linear_31616_155429" x1="500.407" y1="1132.7" x2="500.407" y2="-24.4482" gradientUnits="userSpaceOnUse">
<stop stop-color="#00852B"/>
<stop offset="1" stop-color="#12CC24"/>
</linearGradient>
<linearGradient id="paint9_linear_31616_155429" x1="327.822" y1="682.282" x2="327.822" y2="-474.905" gradientUnits="userSpaceOnUse">
<stop stop-color="#00852B"/>
<stop offset="1" stop-color="#12CC24"/>
</linearGradient>
<linearGradient id="paint10_linear_31616_155429" x1="611.224" y1="1136.75" x2="611.224" y2="-20.3832" gradientUnits="userSpaceOnUse">
<stop stop-color="#00852B"/>
<stop offset="1" stop-color="#12CC24"/>
</linearGradient>
</defs>
</svg>
