<svg width="73" height="18" viewBox="0 0 73 18" fill="none" xmlns="http://www.w3.org/2000/svg">
  <g clip-path="url(#clip0_5462_37462)">
    <path
      d="M73 5.42207C72.8126 5.42207 72.6252 5.40781 72.4391 5.41494C72.2837 5.42089 72.2249 5.37335 72.2281 5.22361C72.237 4.82015 72.2281 4.4161 72.2281 4.01205V3.82309C72.1443 3.82309 72.1328 3.88251 72.1066 3.92113C71.9064 4.21467 71.71 4.51058 71.5092 4.80411C71.371 5.00554 71.0129 5.00376 70.8818 4.80411C70.6694 4.47849 70.4596 4.15049 70.2422 3.8118C70.1853 3.87122 70.2051 3.93064 70.2051 3.97818C70.2051 4.39411 70.1981 4.81005 70.2051 5.22302C70.2051 5.36979 70.1552 5.42742 69.9972 5.41732C69.8527 5.40841 69.7075 5.41376 69.563 5.41732C69.4619 5.41732 69.4056 5.38999 69.4063 5.28363C69.4097 4.34717 69.4097 3.41072 69.4063 2.47427C69.4063 2.37147 69.4542 2.33106 69.5591 2.33701H69.577C70.0887 2.31621 70.0887 2.31621 70.349 2.72858C70.5927 3.1154 70.8395 3.50104 71.0781 3.89142C71.1542 4.01502 71.2009 4.01858 71.2802 3.89142C71.5815 3.41607 71.8923 2.95081 72.1929 2.47724C72.2172 2.42951 72.2568 2.38993 72.3063 2.36387C72.3557 2.33782 72.4126 2.32657 72.4692 2.33166C72.6438 2.33819 72.819 2.33166 72.9943 2.3269L73 5.42207Z"
      fill="#414141" />
    <path
      d="M10.5472 7.98223C11.9014 5.8348 13.2554 3.68738 14.6092 1.53995C15.1036 0.754422 15.8167 0.257673 16.7837 0.0883271C17.2598 -0.00275435 17.7534 0.0263821 18.2132 0.172703C18.9608 0.4187 19.6509 0.769871 20.1786 1.33139C21.1213 2.33558 21.2326 3.66301 20.4984 4.86745C18.5647 8.03016 16.6296 11.1923 14.6929 14.3538C14.212 15.1375 13.7822 15.9516 13.2302 16.6937C12.5312 17.6332 11.5309 18.0693 10.3029 17.9909C9.12479 17.9154 8.24346 17.364 7.65761 16.421C5.25664 12.5564 2.86078 8.68913 0.470044 4.81932C-0.494437 3.25658 0.0690297 1.43715 1.76007 0.552395C2.39965 0.216079 3.06161 -0.041802 3.81567 0.00454533C4.63049 0.0526753 5.33594 0.331948 5.91156 0.87742C5.88342 1.00517 5.79644 0.964173 5.72481 0.926144C5.56878 0.840633 5.4043 0.769202 5.23361 0.712828C4.64648 0.529221 4.05295 0.428208 3.4428 0.61538C3.15981 0.699016 2.89962 0.838469 2.68002 1.02419C2.46043 1.20992 2.28662 1.43753 2.17049 1.69145C2.05437 1.94537 1.99866 2.2196 2.00719 2.49538C2.01573 2.77115 2.08829 3.04196 2.21993 3.28926C2.52117 3.87039 2.90171 4.4117 3.24964 4.96906C3.89498 6.00118 4.54479 7.03152 5.22658 8.04403C5.7069 8.75706 6.37206 9.20984 7.27322 9.36195C7.95087 9.4839 8.65301 9.35604 9.23096 9.00544C9.64466 8.75216 10.0174 8.44545 10.3381 8.09453C10.3896 8.03347 10.4645 7.99324 10.5472 7.98223Z"
      fill="#EC2132" />
    <path
      d="M52.6415 17.514C52.2852 17.514 51.929 17.5104 51.5727 17.514C51.5255 17.5182 51.4779 17.5087 51.4367 17.4868C51.3954 17.4649 51.3625 17.4316 51.3425 17.3916C50.3588 15.7944 49.3728 14.199 48.3845 12.6053C48.3084 12.4865 48.339 12.4568 48.4798 12.4574C49.1863 12.4613 49.8928 12.4613 50.5993 12.4574C50.6467 12.4542 50.6941 12.4646 50.735 12.4871C50.7759 12.5096 50.8085 12.5432 50.8283 12.5834C51.0547 12.9476 51.2875 13.3083 51.519 13.6701C51.6239 13.8341 51.6469 13.8359 51.7422 13.6612C52.1085 13.0134 52.2057 12.2631 52.0153 11.553C51.7717 10.5886 51.2555 9.78529 50.3249 9.25645C49.5792 8.83279 48.7618 8.75138 47.9131 8.86666C46.1741 9.10434 45.1629 10.3813 44.9787 11.7854C44.8853 12.502 44.9717 13.2001 45.3119 13.8532C45.8357 14.8585 46.7721 15.3386 47.9029 15.5508C48.1224 15.5881 48.3444 15.6115 48.5674 15.6209C48.6148 15.6202 48.6614 15.6324 48.7015 15.656C48.7416 15.6795 48.7734 15.7133 48.7932 15.7534C49.1385 16.3274 49.4864 16.8994 49.8369 17.4694C49.8977 17.5675 49.9188 17.6257 49.7589 17.6394C48.7273 17.7279 47.7001 17.7796 46.6838 17.5146C45.1009 17.1022 43.7859 16.3488 42.9481 14.9922C42.3724 14.0593 42.1902 13.0385 42.2279 11.9767C42.2695 10.7913 42.6443 9.71874 43.4821 8.80308C44.1095 8.11975 44.8892 7.63073 45.7769 7.28253C46.609 6.94428 47.5023 6.75479 48.41 6.72399C48.9783 6.7179 49.5444 6.7906 50.0896 6.93968C51.1999 7.22489 52.2046 7.69134 53.0598 8.4216C53.9129 9.13259 54.4807 10.0917 54.6702 11.1418C54.926 12.5358 54.7374 13.8692 53.9533 15.1033C53.7363 15.4542 53.4616 15.7714 53.1391 16.0434C53.0476 16.1188 53.0463 16.1753 53.1097 16.268C53.3527 16.6292 53.5836 16.9976 53.8266 17.3595C53.913 17.4879 53.8803 17.5182 53.7288 17.5158C53.3668 17.5098 53.0041 17.514 52.6415 17.514Z"
      fill="#1E427E" />
    <path
      d="M66.0906 17.5418H65.4677C64.7731 17.5418 64.0785 17.5418 63.3839 17.5418C63.3308 17.5462 63.2774 17.5367 63.2298 17.5143C63.1822 17.492 63.1423 17.4576 63.1147 17.4153C61.7481 15.5649 60.379 13.7162 59.0073 11.869C58.9779 11.8292 58.9171 11.7894 58.9433 11.7389C58.9696 11.6884 59.0406 11.711 59.0911 11.711C59.9187 11.711 60.7463 11.711 61.5739 11.7074C61.6272 11.7033 61.6807 11.714 61.7275 11.7381C61.7743 11.7622 61.8123 11.7987 61.8368 11.8429C61.9302 11.9873 62.0434 12.1204 62.1329 12.266C62.2026 12.3794 62.2691 12.3759 62.3772 12.3123C62.9637 11.9659 63.3123 11.2261 63.1965 10.5547C63.0552 9.73349 62.4968 9.26704 61.6795 9.02758C61.3887 8.94941 61.0866 8.91353 60.784 8.92122C60.1317 8.92122 59.4793 8.92716 58.8269 8.91766C58.6504 8.91766 58.6057 8.96341 58.6063 9.12503C58.6114 11.8346 58.6127 14.5445 58.6101 17.2548C58.6101 17.5175 58.6101 17.5175 58.3249 17.5175C57.6066 17.5175 56.8877 17.5175 56.1689 17.5204C56.016 17.5204 55.9591 17.486 55.9597 17.3327C55.9674 13.9212 55.9708 10.5099 55.97 7.09882C55.97 6.94908 56.023 6.90808 56.1791 6.90868C57.8765 6.91284 59.574 6.90214 61.2708 6.91403C62.5058 6.92294 63.6295 7.2545 64.5761 8.01448C65.3679 8.65086 65.7913 9.46432 65.8668 10.4352C65.9307 11.2012 65.8092 11.9344 65.4223 12.6195C65.0515 13.2831 64.4501 13.8108 63.7159 14.1169C63.5579 14.1852 63.5579 14.231 63.6519 14.3546C64.442 15.3611 65.2276 16.3713 66.0087 17.385C66.0546 17.4269 66.0835 17.4823 66.0906 17.5418Z"
      fill="#1E427E" />
    <path
      d="M25.3395 12.2155V7.9408C25.3395 7.19687 25.768 6.80113 26.5713 6.80054C28.5583 6.80054 30.5452 6.80054 32.5322 6.80054C33.0976 6.80054 33.5024 7.07803 33.6412 7.54863C33.6796 7.6874 33.6852 7.83223 33.6577 7.9732C33.6302 8.11417 33.5702 8.24795 33.4818 8.36535C33.3934 8.48275 33.2787 8.581 33.1456 8.65336C33.0125 8.72571 32.8641 8.77047 32.7106 8.78456C32.5904 8.79347 32.4689 8.79169 32.3486 8.79169C30.8021 8.79169 29.2563 8.79466 27.7098 8.78753C27.5313 8.78753 27.4904 8.83507 27.4923 8.99431C27.5017 9.67288 27.5017 10.3517 27.4923 11.0306C27.4923 11.1827 27.5397 11.2148 27.6957 11.2142C29.3023 11.2091 30.909 11.2091 32.5156 11.2142C33.0694 11.2142 33.4749 11.4882 33.6156 11.9504C33.657 12.0914 33.6643 12.2391 33.637 12.3829C33.6097 12.5268 33.5484 12.6633 33.4577 12.7825C33.3669 12.9018 33.2488 13.001 33.1119 13.0728C32.975 13.1447 32.8227 13.1875 32.6659 13.1983C32.4247 13.2113 32.183 13.2048 31.9412 13.2048C30.5278 13.2048 29.1149 13.2078 27.7015 13.2012C27.5294 13.2012 27.4917 13.2494 27.493 13.3991C27.5006 14.0836 27.5006 14.7679 27.493 15.452C27.493 15.5946 27.5384 15.6303 27.6848 15.6303C29.2915 15.6255 30.8981 15.6246 32.5047 15.6273C33.0694 15.6273 33.4788 15.9042 33.6176 16.3713C33.6566 16.5113 33.6624 16.6576 33.6344 16.7999C33.6065 16.9422 33.5455 17.0772 33.4557 17.1953C33.3659 17.3135 33.2495 17.4121 33.1145 17.4843C32.9796 17.5564 32.8293 17.6004 32.6742 17.6131C32.662 17.6137 32.6499 17.6137 32.6377 17.6131C30.5482 17.6131 28.4587 17.6203 26.3699 17.6102C25.7623 17.6072 25.3408 17.152 25.3402 16.5442C25.338 15.1011 25.3378 13.6582 25.3395 12.2155Z"
      fill="#EC2132" />
    <path
      d="M10.5471 7.98243C10.1244 8.50347 9.58522 8.93322 8.96666 9.24213C7.99515 9.72462 6.55546 9.44594 5.80907 8.82619C5.33003 8.42749 5.02559 7.91707 4.70452 7.41854C3.90122 6.17132 3.11454 4.91578 2.31954 3.665C1.97225 3.11774 1.80405 2.54375 1.98824 1.91034C2.11911 1.48671 2.39431 1.11392 2.77255 0.847909C3.15078 0.581895 3.61167 0.436995 4.08605 0.434947C4.66933 0.433547 5.24276 0.574521 5.74895 0.843754C5.79884 0.870493 5.84681 0.918029 5.91332 0.877623C6.14805 1.05588 6.30155 1.28643 6.45057 1.52292C7.77833 3.62836 9.10524 5.733 10.4313 7.83686C10.4646 7.88855 10.4831 7.95094 10.5471 7.98243Z"
      fill="#9F2C22" />
    <path
      d="M39.3239 12.7687C39.3239 14.0248 39.3239 15.2811 39.3239 16.5377C39.3239 17.0784 39.0169 17.4604 38.4924 17.5858C37.888 17.7302 37.2516 17.3244 37.1851 16.7504C37.1726 16.6446 37.1662 16.5383 37.1659 16.4319C37.1659 13.9581 37.1659 11.4844 37.1659 9.01097C37.1659 8.7923 37.1659 8.7929 36.9338 8.7923C36.3242 8.7923 35.7135 8.80359 35.1039 8.78696C34.9174 8.78285 34.7353 8.73314 34.576 8.64284C34.4167 8.55253 34.2859 8.42482 34.1967 8.27257C34.1074 8.12031 34.063 7.9489 34.0677 7.7756C34.0725 7.6023 34.1264 7.43323 34.2239 7.28542C34.3158 7.13561 34.4497 7.01168 34.6113 6.92674C34.7728 6.84181 34.9561 6.79903 35.1417 6.80293C35.558 6.79699 35.9731 6.80293 36.392 6.80293C38.0046 6.80293 39.617 6.80293 41.2292 6.80293C41.8348 6.80293 42.2749 7.1541 42.3452 7.67997C42.3649 7.8151 42.3538 7.95256 42.3129 8.0835C42.2719 8.21444 42.2018 8.33596 42.1073 8.44023C42.0127 8.54451 41.8956 8.62923 41.7637 8.68894C41.6317 8.74866 41.4878 8.78205 41.3411 8.78696C40.7316 8.803 40.1208 8.79706 39.5113 8.78696C39.361 8.78696 39.3194 8.82261 39.3194 8.96522C39.3264 10.2332 39.3239 11.5007 39.3239 12.7687Z"
      fill="#EC2132" />
    <path
      d="M23.5211 12.2161C23.5211 13.6576 23.5211 15.0989 23.5211 16.5401C23.5211 17.0796 23.2128 17.4617 22.6896 17.5864C22.0859 17.7296 21.4482 17.322 21.383 16.7498C21.3728 16.6719 21.367 16.5936 21.3657 16.5151C21.3657 13.6439 21.3657 10.772 21.3657 7.89924C21.3657 7.49519 21.5071 7.15947 21.8902 6.94496C22.6334 6.52903 23.516 7.0228 23.5224 7.85706C23.5288 8.72577 23.5224 9.59508 23.5224 10.4644L23.5211 12.2161Z"
      fill="#EC2132" />
    <path
      d="M67.5878 2.33167C67.9984 2.33167 68.409 2.33523 68.8196 2.33167C68.9565 2.33167 69.0115 2.36851 69.0115 2.50339C69.0186 3.02272 69.023 3.02272 68.466 3.02272C67.9908 3.02272 67.9908 3.02272 67.9908 3.47015C67.9908 4.05365 67.9869 4.63655 67.9908 5.22005C67.9908 5.36444 67.9447 5.42684 67.7842 5.41673C67.6394 5.40782 67.4941 5.40782 67.3493 5.41673C67.199 5.42565 67.151 5.36979 67.1523 5.23134C67.1574 4.58129 67.1523 3.93065 67.1523 3.28C67.1523 3.02331 67.1523 3.02331 66.8709 3.02331C66.6899 3.02331 66.5082 3.01856 66.3272 3.02331C66.1929 3.02747 66.1353 2.98825 66.1321 2.85159C66.1219 2.33226 66.1168 2.33285 66.6764 2.33285L67.5878 2.33167Z"
      fill="#414141" />
  </g>
  <defs>
    <clipPath id="clip0_5462_37462">
      <rect width="73" height="18" fill="white" />
    </clipPath>
  </defs>
</svg>