<svg width="32" height="20" viewBox="0 0 32 20" fill="none" xmlns="http://www.w3.org/2000/svg">
<rect width="32" height="20" rx="3" fill="white"/>
<path d="M12.2667 14.2667L13.6889 6.26672H15.9112L14.5334 14.2667H12.2667Z" fill="#3C58BF"/>
<path d="M12.2667 14.2667L14.0889 6.26672H15.9112L14.5334 14.2667H12.2667Z" fill="#293688"/>
<path d="M22.5778 6.35556C22.1334 6.17778 21.4223 6 20.5334 6C18.3112 6 16.7112 7.11111 16.7112 8.71111C16.7112 9.91111 17.8223 10.5333 18.7112 10.9333C19.6001 11.3333 19.8667 11.6 19.8667 11.9556C19.8667 12.4889 19.1556 12.7556 18.5334 12.7556C17.6445 12.7556 17.1556 12.6222 16.4001 12.3111L16.0889 12.1778L15.7778 14C16.3112 14.2222 17.2889 14.4444 18.3112 14.4444C20.6667 14.4444 22.2223 13.3333 22.2223 11.6444C22.2223 10.7111 21.6445 10 20.3112 9.42222C19.5112 9.02222 19.0223 8.8 19.0223 8.4C19.0223 8.04444 19.4223 7.68889 20.3112 7.68889C21.0667 7.68889 21.6001 7.82222 22.0001 8L22.2223 8.08889L22.5778 6.35556Z" fill="#3C58BF"/>
<path d="M22.5778 6.35556C22.1334 6.17778 21.4223 6 20.5334 6C18.3112 6 17.1112 7.11111 17.1112 8.71111C17.1112 9.91111 17.8223 10.5333 18.7112 10.9333C19.6001 11.3333 19.8667 11.6 19.8667 11.9556C19.8667 12.4889 19.1556 12.7556 18.5334 12.7556C17.6445 12.7556 17.1556 12.6222 16.4001 12.3111L16.0889 12.1778L15.7778 14C16.3112 14.2222 17.2889 14.4444 18.3112 14.4444C20.6667 14.4444 22.2223 13.3333 22.2223 11.6444C22.2223 10.7111 21.6445 10 20.3112 9.42222C19.5112 9.02222 19.0223 8.8 19.0223 8.4C19.0223 8.04444 19.4223 7.68889 20.3112 7.68889C21.0667 7.68889 21.6001 7.82222 22.0001 8L22.2223 8.08889L22.5778 6.35556Z" fill="#293688"/>
<path d="M26.3999 6.26672C25.8666 6.26672 25.4666 6.31117 25.2443 6.8445L21.911 14.2667H24.311L24.7555 12.9334H27.5999L27.8666 14.2667H29.9999L28.1332 6.26672H26.3999ZM25.3777 11.6001C25.511 11.2001 26.2666 9.2445 26.2666 9.2445C26.2666 9.2445 26.4443 8.75561 26.5777 8.4445L26.711 9.20006C26.711 9.20006 27.1555 11.2001 27.2443 11.6445H25.3777V11.6001Z" fill="#3C58BF"/>
<path d="M26.9332 6.26672C26.3999 6.26672 25.9999 6.31117 25.7777 6.8445L21.911 14.2667H24.311L24.7555 12.9334H27.5999L27.8666 14.2667H29.9999L28.1332 6.26672H26.9332ZM25.3777 11.6001C25.5555 11.1556 26.2666 9.2445 26.2666 9.2445C26.2666 9.2445 26.4443 8.75561 26.5777 8.4445L26.711 9.20006C26.711 9.20006 27.1555 11.2001 27.2443 11.6445H25.3777V11.6001Z" fill="#293688"/>
<path d="M8.17782 11.8667L7.95559 10.7112C7.55559 9.37782 6.2667 7.91116 4.84448 7.20005L6.84448 14.3112H9.24448L12.8445 6.31116H10.4445L8.17782 11.8667Z" fill="#3C58BF"/>
<path d="M8.17782 11.8667L7.95559 10.7112C7.55559 9.37782 6.2667 7.91116 4.84448 7.20005L6.84448 14.3112H9.24448L12.8445 6.31116H10.8889L8.17782 11.8667Z" fill="#293688"/>
<path d="M2 6.26672L2.4 6.35561C5.24444 7.02228 7.2 8.71117 7.95555 10.7112L7.15556 6.93339C7.02222 6.40006 6.62222 6.26672 6.13333 6.26672H2Z" fill="#FFBC00"/>
<path d="M2 6.26672C4.84444 6.93339 7.2 8.66672 7.95555 10.6667L7.2 7.51117C7.06667 6.97784 6.62222 6.66672 6.13333 6.66672L2 6.26672Z" fill="#F7981D"/>
<path d="M2 6.26672C4.84444 6.93339 7.2 8.66672 7.95555 10.6667L7.42222 8.93339C7.28889 8.40006 7.11111 7.86672 6.48889 7.6445L2 6.26672Z" fill="#ED7C00"/>
<path d="M10.4 11.6L8.88892 10.0889L8.1778 11.7777L8.00003 10.6666C7.60003 9.3333 6.31114 7.86663 4.88892 7.15552L6.88892 14.2666H9.28892L10.4 11.6ZM14.5334 14.2666L12.6222 12.3111L12.2667 14.2666H14.5334ZM19.6445 11.5111C19.8222 11.6889 19.9111 11.8222 19.8667 12C19.8667 12.5333 19.1556 12.8 18.5334 12.8C17.6445 12.8 17.1556 12.6666 16.4 12.3555L16.0889 12.2222L15.7778 14.0444C16.3111 14.2666 17.2889 14.4889 18.3111 14.4889C19.7334 14.4889 20.8889 14.0889 21.5556 13.3777L19.6445 11.5111ZM22.2222 14.2666H24.3111L24.7556 12.9333H27.6L27.8667 14.2666H30L29.2445 11.0222L26.5778 8.44441L26.7111 9.15552C26.7111 9.15552 27.1556 11.1555 27.2445 11.6H25.3778C25.5556 11.1555 26.2667 9.24441 26.2667 9.24441C26.2667 9.24441 26.4445 8.75552 26.5778 8.44441" fill="#051244"/>
<rect x="0.1" y="0.1" width="31.8" height="19.8" rx="2.9" stroke="#333333" stroke-opacity="0.08" stroke-width="0.2"/>
</svg>
