<svg width="32" height="32" viewBox="0 0 32 32" fill="none" xmlns="http://www.w3.org/2000/svg">
<rect x="0.5" y="0.5" width="31" height="31" rx="3.5" stroke="#DDDDDD" stroke-dasharray="8 8"/>
<path opacity="0.4" d="M29.0001 11.8424V22.6664C29.0789 23.3421 29.0038 24.0268 28.7804 24.6693C28.557 25.3118 28.1911 25.8954 27.7101 26.3764C27.2291 26.8574 26.6455 27.2234 26.003 27.4468C25.3605 27.6702 24.6757 27.7453 24.0001 27.6664H8.00009C7.32444 27.7453 6.63971 27.6702 5.99721 27.4468C5.3547 27.2234 4.77109 26.8574 4.29009 26.3764C3.80909 25.8954 3.44318 25.3118 3.21978 24.6693C2.99638 24.0268 2.92127 23.3421 3.00009 22.6664V9.3331C2.92127 8.65745 2.99638 7.97272 3.21978 7.33022C3.44318 6.68771 3.80909 6.1041 4.29009 5.6231C4.77109 5.1421 5.3547 4.77619 5.99721 4.55279C6.63971 4.32938 7.32444 4.25428 8.00009 4.3331H19.7334C19.7924 4.33465 19.8504 4.34923 19.903 4.3758C19.9557 4.40237 20.0019 4.44027 20.0382 4.48679C20.0746 4.53331 20.1001 4.58729 20.1131 4.64486C20.1261 4.70242 20.1262 4.76216 20.1134 4.81977C19.7988 6.37768 20.1152 7.99675 20.9931 9.32163C21.8711 10.6465 23.2388 11.5689 24.7961 11.8864C26.0287 12.1328 27.3075 11.9859 28.4521 11.4664C28.5131 11.4421 28.5792 11.4332 28.6445 11.4405C28.7098 11.4478 28.7723 11.471 28.8264 11.5082C28.8806 11.5454 28.9248 11.5953 28.9551 11.6536C28.9854 11.7119 29.0008 11.7767 29.0001 11.8424Z" fill="#396CE8"/>
<path d="M26.8827 18.8832L20.9467 12.9472C20.6953 12.6967 20.3549 12.5561 20 12.5561C19.6451 12.5561 19.3047 12.6967 19.0533 12.9472L12.4667 19.5339C12.342 19.656 12.1745 19.7244 12 19.7244C11.8255 19.7244 11.658 19.656 11.5333 19.5339L10.28 18.2805C10.0286 18.0301 9.6882 17.8895 9.33333 17.8895C8.97847 17.8895 8.63807 18.0301 8.38667 18.2805L5.11733 21.5499C5.0423 21.6248 5.00009 21.7265 5 21.8325V22.6672C5 24.7739 5.89333 25.6672 8 25.6672H24C26.1067 25.6672 27 24.7739 27 22.6672V19.1659C26.9999 19.0598 26.9577 18.9581 26.8827 18.8832ZM10.6667 13.6672C10.4478 13.668 10.2309 13.6256 10.0284 13.5426C9.82589 13.4596 9.64172 13.3375 9.4864 13.1833C9.17271 12.8718 8.99559 12.4486 8.994 12.0065C8.99241 11.5645 9.16648 11.1399 9.47791 10.8263C9.78935 10.5126 10.2126 10.3354 10.6547 10.3339H10.6667C11.1087 10.3339 11.5326 10.5095 11.8452 10.822C12.1577 11.1346 12.3333 11.5585 12.3333 12.0005C12.3333 12.4426 12.1577 12.8665 11.8452 13.179C11.5326 13.4916 11.1087 13.6672 10.6667 13.6672ZM28.7067 5.29386L26.7067 3.29386C26.519 3.10691 26.2649 3.00195 26 3.00195C25.7351 3.00195 25.481 3.10691 25.2933 3.29386L23.2933 5.29386C23.1167 5.48342 23.0205 5.73415 23.0251 5.99322C23.0297 6.25229 23.1346 6.49947 23.3178 6.68269C23.5011 6.8659 23.7482 6.97085 24.0073 6.97542C24.2664 6.97999 24.5171 6.88383 24.7067 6.70719L25 6.41519V9.33386C25 9.59907 25.1054 9.85343 25.2929 10.041C25.4804 10.2285 25.7348 10.3339 26 10.3339C26.2652 10.3339 26.5196 10.2285 26.7071 10.041C26.8946 9.85343 27 9.59907 27 9.33386V6.41519L27.2933 6.70719C27.4829 6.88383 27.7336 6.97999 27.9927 6.97542C28.2518 6.97085 28.4989 6.8659 28.6822 6.68269C28.8654 6.49947 28.9703 6.25229 28.9749 5.99322C28.9795 5.73415 28.8833 5.48342 28.7067 5.29386Z" fill="#396CE8"/>
</svg>
