<svg width="136" height="40" viewBox="0 0 136 40" fill="none" xmlns="http://www.w3.org/2000/svg">
<g clip-path="url(#clip0_5217_937)">
<path d="M20 40C31.0457 40 40 31.0457 40 20C40 8.95431 31.0457 0 20 0C8.95431 0 0 8.95431 0 20C0 31.0457 8.95431 40 20 40Z" fill="#F57C00"/>
<path d="M32.8667 17.6003C32.0667 17.6003 31.4333 18.2336 31.4333 19.0336C31.4333 25.3336 26.3333 30.4336 20 30.4336C13.7 30.4336 8.6 25.3336 8.6 19.0003V11.8669C8.6 11.0669 7.96667 10.4336 7.16667 10.4336H1.43333C0.633333 10.4336 0 11.0669 0 11.8669C0 12.6669 0.633333 13.3003 1.43333 13.3003H5.73333V19.0003C5.73333 26.9003 12.1333 33.3003 20 33.3003C27.9 33.3003 34.2667 26.9003 34.2667 19.0003C34.3 18.2336 33.6667 17.6003 32.8667 17.6003Z" fill="white"/>
<path d="M15.6667 21.8671C16.4667 21.8671 17.1001 21.2338 17.1001 20.4338V17.5671C17.1001 16.7671 16.4667 16.1338 15.6667 16.1338C14.8667 16.1338 14.2334 16.7671 14.2334 17.5671V20.4338C14.2334 21.2338 14.8667 21.8671 15.6667 21.8671Z" fill="white"/>
<path d="M24.3332 21.8671C25.1332 21.8671 25.7666 21.2338 25.7666 20.4338V17.5671C25.7666 16.7671 25.1332 16.1338 24.3332 16.1338C23.5332 16.1338 22.8999 16.7671 22.8999 17.5671V20.4338C22.8999 21.2338 23.5666 21.8671 24.3332 21.8671Z" fill="white"/>
<path d="M14.2718 39.0334C15.855 39.0306 17.1362 37.7449 17.1334 36.1617C17.1306 34.5785 15.8449 33.2973 14.2617 33.3001C12.6785 33.3029 11.3973 34.5886 11.4001 36.1718C11.4029 37.7551 12.6886 39.0362 14.2718 39.0334Z" fill="white"/>
<path d="M28.6405 36.1636C28.6434 34.5803 27.3622 33.2946 25.779 33.2918C24.1958 33.289 22.91 34.5701 22.9072 36.1534C22.9044 37.7366 24.1855 39.0223 25.7688 39.0251C27.352 39.0279 28.6377 37.7468 28.6405 36.1636Z" fill="white"/>
<path d="M115.567 13.4331C114.833 13.4331 114.233 14.0331 114.233 14.7665C114.233 20.5998 109.5 25.3665 103.633 25.3665C97.8 25.3665 93.0333 20.6331 93.0333 14.7665V8.13314C93.0333 7.3998 92.4333 6.7998 91.7 6.7998H86.4C85.6667 6.7998 85.0667 7.3998 85.0667 8.13314C85.0667 8.86647 85.6667 9.46647 86.4 9.46647H90.4V14.7665C90.4 22.0665 96.3333 27.9998 103.633 27.9998C110.933 27.9998 116.867 22.0665 116.867 14.7665C116.9 13.9998 116.3 13.4331 115.567 13.4331Z" fill="#F57C00"/>
<path d="M99.6334 17.4001C100.367 17.4001 100.967 16.8001 100.967 16.0668V13.4334C100.967 12.7001 100.367 12.1001 99.6334 12.1001C98.9 12.1001 98.3 12.7001 98.3 13.4334V16.0668C98.3334 16.8001 98.9334 17.4001 99.6334 17.4001Z" fill="#F57C00"/>
<path d="M107.667 17.4001C108.4 17.4001 109 16.8001 109 16.0668V13.4334C109 12.7001 108.4 12.1001 107.667 12.1001C106.933 12.1001 106.333 12.7001 106.333 13.4334V16.0668C106.333 16.8001 106.933 17.4001 107.667 17.4001Z" fill="#F57C00"/>
<path d="M98.3333 27.9668C96.8666 27.9668 95.7 29.1668 95.7 30.6001C95.7 32.0668 96.8999 33.2335 98.3333 33.2335C99.7999 33.2335 100.967 32.0335 100.967 30.6001C100.967 29.1668 99.7999 27.9668 98.3333 27.9668Z" fill="#F57C00"/>
<path d="M108.967 27.9668C107.5 27.9668 106.333 29.1668 106.333 30.6001C106.333 32.0668 107.533 33.2335 108.967 33.2335C110.433 33.2335 111.6 32.0335 111.6 30.6001C111.633 29.1668 110.433 27.9668 108.967 27.9668Z" fill="#F57C00"/>
<path d="M49.3333 12.1001C48.6 12.1001 48 12.7001 48 13.4334V26.6668C48 27.4001 48.6 28.0001 49.3333 28.0001C50.0667 28.0001 50.6667 27.4001 50.6667 26.6668V13.4334C50.6667 12.7001 50.0667 12.1001 49.3333 12.1001Z" fill="#F57C00"/>
<path d="M81.1001 12.1001C80.3667 12.1001 79.7667 12.7001 79.7667 13.4334V18.7334H71.8334V13.4334C71.8334 13.0668 71.7001 12.7334 71.4334 12.5001C71.2001 12.2668 70.8667 12.1001 70.5001 12.1001C69.7667 12.1001 69.1667 12.7001 69.1667 13.4334V26.6668C69.1667 27.4001 69.7667 28.0001 70.5001 28.0001C71.2334 28.0001 71.8334 27.4001 71.8334 26.6668V21.3668H79.7667V26.6668C79.7667 27.4001 80.3667 28.0001 81.1001 28.0001C81.8334 28.0001 82.4334 27.4001 82.4334 26.6668V13.4334C82.4334 13.0668 82.3001 12.7334 82.0334 12.5001C81.8001 12.2334 81.4667 12.1001 81.1001 12.1001Z" fill="#F57C00"/>
<path d="M86.5001 12.1001H86.3668C85.6668 12.1001 85.1001 12.6668 85.1001 13.3668V26.7334C85.1001 27.4334 85.6668 28.0001 86.3668 28.0001H86.5001C87.2001 28.0001 87.7668 27.4334 87.7668 26.7334V13.3668C87.7668 12.6668 87.2001 12.1001 86.5001 12.1001Z" fill="#F57C00"/>
<path d="M61.3 14.7668C62.5667 14.7668 63.8 15.2334 64.7667 16.0668C65.3334 16.5334 66.1667 16.5001 66.6334 15.9334C67.1 15.3668 67.0667 14.5334 66.5 14.0668C65.0667 12.8001 63.2 12.1001 61.3 12.1001C56.9334 12.1001 53.3667 15.6668 53.3667 20.0334C53.3667 24.4001 56.9334 27.9668 61.3 27.9668C63.2334 27.9668 65.0667 27.2668 66.5 26.0001C67.0667 25.5334 67.1 24.6668 66.6334 24.1334C66.1667 23.5668 65.3 23.5334 64.7667 24.0001C63.8 24.8334 62.5667 25.3001 61.3 25.3001C58.4 25.3001 56.0334 22.9334 56.0334 20.0334C56.0334 17.1334 58.3667 14.7668 61.3 14.7668Z" fill="#F57C00"/>
<path d="M127.5 12.1333C123.1 12.1333 119.567 15.7 119.567 20.0666C119.567 24.4333 123.133 28 127.5 28C129.533 28 131.4 27.2333 132.8 25.9666V26.6666C132.8 27.4 133.4 28 134.133 28C134.867 28 135.467 27.4 135.467 26.6666V20.1C135.433 15.7 131.867 12.1333 127.5 12.1333ZM127.5 25.3666C124.567 25.3666 122.2 23 122.2 20.0666C122.2 17.1333 124.567 14.7666 127.5 14.7666C130.433 14.7666 132.8 17.1333 132.8 20.0666C132.767 23 130.4 25.3666 127.5 25.3666Z" fill="#F57C00"/>
<path d="M102.702 6.7666C103.023 6.7666 103.298 6.83204 103.527 6.96292C103.758 7.09239 103.933 7.27745 104.051 7.5181C104.169 7.75735 104.228 8.03881 104.228 8.36249C104.228 8.60173 104.196 8.81916 104.131 9.01478C104.066 9.21039 103.969 9.37997 103.84 9.52352C103.71 9.66706 103.551 9.77683 103.363 9.85283C103.174 9.92882 102.958 9.96682 102.715 9.96682C102.473 9.96682 102.256 9.92812 102.064 9.85072C101.873 9.77191 101.713 9.66144 101.585 9.5193C101.457 9.37716 101.36 9.20617 101.294 9.00633C101.229 8.8065 101.197 8.59047 101.197 8.35827C101.197 8.12043 101.231 7.9023 101.298 7.70387C101.367 7.50544 101.466 7.33656 101.596 7.19724C101.725 7.05791 101.883 6.95166 102.069 6.87848C102.254 6.8039 102.465 6.7666 102.702 6.7666ZM103.593 8.35827C103.593 8.13169 103.556 7.93537 103.483 7.76931C103.41 7.60325 103.305 7.478 103.168 7.39356C103.033 7.30771 102.878 7.26479 102.702 7.26479C102.577 7.26479 102.461 7.28871 102.354 7.33656C102.248 7.383 102.157 7.45126 102.079 7.54133C102.003 7.63139 101.943 7.74679 101.898 7.88752C101.854 8.02685 101.832 8.18376 101.832 8.35827C101.832 8.53418 101.854 8.69321 101.898 8.83535C101.943 8.97748 102.005 9.0957 102.085 9.18999C102.167 9.28287 102.26 9.35253 102.364 9.39897C102.47 9.44541 102.585 9.46863 102.71 9.46863C102.871 9.46863 103.018 9.42853 103.152 9.34831C103.287 9.26809 103.394 9.14425 103.472 8.97678C103.553 8.80931 103.593 8.60314 103.593 8.35827Z" fill="#F57C00"/>
<path d="M105.624 7.14235L106.83 8.96623V7.12547C106.83 7.00584 106.855 6.91648 106.906 6.85737C106.958 6.79686 107.028 6.7666 107.115 6.7666C107.205 6.7666 107.276 6.79686 107.328 6.85737C107.38 6.91648 107.406 7.00584 107.406 7.12547V9.55941C107.406 9.83102 107.294 9.96682 107.068 9.96682C107.012 9.96682 106.961 9.95838 106.916 9.94149C106.871 9.92601 106.829 9.90068 106.79 9.8655C106.75 9.83031 106.714 9.7895 106.68 9.74306C106.646 9.69521 106.612 9.64666 106.579 9.5974L105.403 7.79464V9.60796C105.403 9.72617 105.375 9.81554 105.321 9.87605C105.266 9.93656 105.195 9.96682 105.109 9.96682C105.021 9.96682 104.95 9.93656 104.896 9.87605C104.843 9.81413 104.816 9.72476 104.816 9.60796V7.22046C104.816 7.11913 104.827 7.03962 104.85 6.98192C104.876 6.91859 104.921 6.86722 104.983 6.82782C105.045 6.78701 105.112 6.7666 105.183 6.7666C105.24 6.7666 105.287 6.77575 105.327 6.79404C105.368 6.81234 105.403 6.83697 105.432 6.86793C105.463 6.89889 105.494 6.939 105.525 6.98825C105.558 7.03751 105.591 7.08888 105.624 7.14235Z" fill="#F57C00"/>
<path d="M110.175 7.30279H108.762V8.06273H110.063C110.158 8.06273 110.23 8.08455 110.276 8.12817C110.324 8.17039 110.348 8.22668 110.348 8.29705C110.348 8.36742 110.324 8.42511 110.278 8.47015C110.232 8.51378 110.16 8.53559 110.063 8.53559H108.762V9.41586H110.223C110.322 9.41586 110.396 9.43908 110.445 9.48552C110.495 9.53056 110.521 9.59107 110.521 9.66706C110.521 9.74024 110.495 9.80006 110.445 9.8465C110.396 9.89153 110.322 9.91405 110.223 9.91405H108.52C108.383 9.91405 108.285 9.88379 108.224 9.82328C108.165 9.76276 108.135 9.66495 108.135 9.52985V7.20357C108.135 7.1135 108.149 7.04032 108.176 6.98403C108.202 6.92633 108.244 6.88482 108.3 6.85948C108.358 6.83275 108.431 6.81938 108.52 6.81938H110.175C110.275 6.81938 110.348 6.84189 110.396 6.88693C110.446 6.93055 110.47 6.98825 110.47 7.06003C110.47 7.13321 110.446 7.19231 110.396 7.23735C110.348 7.28097 110.275 7.30279 110.175 7.30279Z" fill="#F57C00"/>
<path d="M113.387 8.70869H112.813V9.58474C112.813 9.70999 112.784 9.80498 112.725 9.86972C112.665 9.93445 112.591 9.96682 112.501 9.96682C112.407 9.96682 112.331 9.93516 112.273 9.87183C112.215 9.80709 112.186 9.7128 112.186 9.58896V7.20357C112.186 7.06565 112.218 6.96714 112.281 6.90804C112.345 6.84893 112.445 6.81938 112.583 6.81938H113.387C113.625 6.81938 113.808 6.83767 113.936 6.87426C114.063 6.90944 114.172 6.96785 114.263 7.04947C114.356 7.13109 114.427 7.23101 114.475 7.34923C114.522 7.46744 114.546 7.60043 114.546 7.7482C114.546 8.06344 114.449 8.30268 114.255 8.46593C114.061 8.62777 113.772 8.70869 113.387 8.70869ZM113.235 7.29012H112.813V8.23583H113.235C113.383 8.23583 113.506 8.22035 113.605 8.18939C113.705 8.15843 113.781 8.10777 113.833 8.0374C113.885 7.96704 113.911 7.87486 113.911 7.76087C113.911 7.62436 113.871 7.51318 113.791 7.42733C113.701 7.33586 113.515 7.29012 113.235 7.29012Z" fill="#F57C00"/>
<path d="M115.727 7.14657V9.39897H116.998C117.1 9.39897 117.177 9.4236 117.23 9.47286C117.285 9.52211 117.313 9.58403 117.313 9.65862C117.313 9.73462 117.286 9.79654 117.232 9.84439C117.179 9.89083 117.101 9.91405 116.998 9.91405H115.485C115.348 9.91405 115.25 9.88379 115.189 9.82328C115.13 9.76276 115.1 9.66495 115.1 9.52985V7.14657C115.1 7.01992 115.129 6.92492 115.185 6.86159C115.243 6.79827 115.318 6.7666 115.411 6.7666C115.505 6.7666 115.581 6.79827 115.639 6.86159C115.698 6.92352 115.727 7.01851 115.727 7.14657Z" fill="#F57C00"/>
<path d="M119.691 9.56363L119.543 9.17521H118.285L118.137 9.57207C118.079 9.72688 118.03 9.83172 117.989 9.88661C117.948 9.94008 117.882 9.96682 117.789 9.96682C117.71 9.96682 117.64 9.93797 117.58 9.88027C117.519 9.82257 117.489 9.75713 117.489 9.68395C117.489 9.64173 117.496 9.59811 117.51 9.55307C117.524 9.50804 117.547 9.44541 117.58 9.3652L118.371 7.35556C118.394 7.29786 118.421 7.2289 118.452 7.14869C118.484 7.06706 118.518 6.99951 118.553 6.94603C118.589 6.89256 118.637 6.84963 118.694 6.81726C118.753 6.78349 118.826 6.7666 118.912 6.7666C118.999 6.7666 119.071 6.78349 119.129 6.81726C119.188 6.84963 119.235 6.89185 119.271 6.94392C119.307 6.99599 119.337 7.05229 119.361 7.1128C119.387 7.17191 119.418 7.25142 119.456 7.35134L120.265 9.34831C120.328 9.5003 120.36 9.61077 120.36 9.67973C120.36 9.7515 120.33 9.81765 120.269 9.87816C120.21 9.93727 120.138 9.96682 120.054 9.96682C120.005 9.96682 119.962 9.95767 119.927 9.93938C119.892 9.92249 119.862 9.89927 119.838 9.86972C119.815 9.83876 119.788 9.79232 119.76 9.73039C119.734 9.66706 119.71 9.61148 119.691 9.56363ZM118.449 8.70447H119.374L118.908 7.42733L118.449 8.70447Z" fill="#F57C00"/>
<path d="M122.495 7.33656H121.811V9.58474C121.811 9.71421 121.782 9.81061 121.725 9.87394C121.667 9.93586 121.592 9.96682 121.501 9.96682C121.408 9.96682 121.332 9.93516 121.273 9.87183C121.215 9.8085 121.186 9.7128 121.186 9.58474V7.33656H120.502C120.395 7.33656 120.316 7.31334 120.264 7.2669C120.212 7.21905 120.186 7.15643 120.186 7.07902C120.186 6.99881 120.212 6.93548 120.266 6.88904C120.321 6.8426 120.4 6.81938 120.502 6.81938H122.495C122.603 6.81938 122.684 6.8433 122.736 6.89115C122.789 6.939 122.816 7.00162 122.816 7.07902C122.816 7.15643 122.789 7.21905 122.736 7.2669C122.682 7.31334 122.602 7.33656 122.495 7.33656Z" fill="#F57C00"/>
<path d="M125.08 7.30279H123.845V8.0944H124.877C124.973 8.0944 125.044 8.11621 125.09 8.15984C125.138 8.20206 125.162 8.25905 125.162 8.33083C125.162 8.4026 125.138 8.45959 125.09 8.50181C125.043 8.54403 124.972 8.56514 124.877 8.56514H123.845V9.58474C123.845 9.71421 123.815 9.81061 123.756 9.87394C123.699 9.93586 123.624 9.96682 123.533 9.96682C123.44 9.96682 123.364 9.93516 123.305 9.87183C123.247 9.8085 123.218 9.7128 123.218 9.58474V7.20357C123.218 7.1135 123.231 7.04032 123.258 6.98403C123.285 6.92633 123.326 6.88482 123.383 6.85948C123.44 6.83275 123.514 6.81938 123.602 6.81938H125.08C125.18 6.81938 125.254 6.84189 125.302 6.88693C125.351 6.93055 125.375 6.98825 125.375 7.06003C125.375 7.13321 125.351 7.19231 125.302 7.23735C125.254 7.28097 125.18 7.30279 125.08 7.30279Z" fill="#F57C00"/>
<path d="M127.249 6.7666C127.57 6.7666 127.845 6.83204 128.074 6.96292C128.305 7.09239 128.48 7.27745 128.598 7.5181C128.716 7.75735 128.775 8.03881 128.775 8.36249C128.775 8.60173 128.743 8.81916 128.678 9.01478C128.613 9.21039 128.516 9.37997 128.387 9.52352C128.257 9.66706 128.098 9.77683 127.91 9.85283C127.721 9.92882 127.505 9.96682 127.262 9.96682C127.019 9.96682 126.803 9.92812 126.611 9.85072C126.42 9.77191 126.26 9.66144 126.132 9.5193C126.004 9.37716 125.907 9.20617 125.841 9.00633C125.776 8.8065 125.744 8.59047 125.744 8.35827C125.744 8.12043 125.778 7.9023 125.845 7.70387C125.914 7.50544 126.013 7.33656 126.143 7.19724C126.272 7.05791 126.43 6.95166 126.616 6.87848C126.801 6.8039 127.012 6.7666 127.249 6.7666ZM128.14 8.35827C128.14 8.13169 128.103 7.93537 128.03 7.76931C127.957 7.60325 127.852 7.478 127.715 7.39356C127.58 7.30771 127.425 7.26479 127.249 7.26479C127.124 7.26479 127.007 7.28871 126.901 7.33656C126.795 7.383 126.704 7.45126 126.626 7.54133C126.55 7.63139 126.49 7.74679 126.445 7.88752C126.401 8.02685 126.379 8.18376 126.379 8.35827C126.379 8.53418 126.401 8.69321 126.445 8.83535C126.49 8.97748 126.552 9.0957 126.632 9.18999C126.714 9.28287 126.807 9.35253 126.911 9.39897C127.017 9.44541 127.132 9.46863 127.257 9.46863C127.418 9.46863 127.565 9.42853 127.698 9.34831C127.834 9.26809 127.941 9.14425 128.019 8.97678C128.1 8.80931 128.14 8.60314 128.14 8.35827Z" fill="#F57C00"/>
<path d="M130.197 8.59047H129.977V9.58474C129.977 9.71562 129.948 9.81202 129.891 9.87394C129.833 9.93586 129.758 9.96682 129.665 9.96682C129.565 9.96682 129.487 9.93445 129.433 9.86972C129.378 9.80498 129.35 9.70999 129.35 9.58474V7.20357C129.35 7.06847 129.381 6.97066 129.441 6.91015C129.502 6.84963 129.599 6.81938 129.734 6.81938H130.754C130.895 6.81938 131.015 6.82571 131.115 6.83837C131.215 6.84963 131.305 6.87356 131.385 6.91015C131.482 6.95096 131.568 7.00936 131.643 7.08536C131.717 7.16135 131.774 7.25001 131.812 7.35134C131.851 7.45126 131.871 7.55751 131.871 7.67009C131.871 7.90089 131.805 8.08525 131.674 8.22317C131.545 8.36108 131.348 8.45889 131.083 8.51659C131.195 8.5757 131.301 8.66295 131.402 8.77835C131.503 8.89375 131.594 9.01689 131.672 9.14777C131.753 9.27724 131.814 9.39475 131.858 9.5003C131.903 9.60444 131.926 9.67621 131.926 9.71562C131.926 9.75643 131.912 9.79724 131.886 9.83805C131.86 9.87746 131.825 9.90842 131.78 9.93094C131.735 9.95486 131.683 9.96682 131.624 9.96682C131.553 9.96682 131.494 9.94993 131.446 9.91616C131.399 9.88379 131.357 9.84227 131.322 9.79161C131.288 9.74095 131.242 9.66636 131.183 9.56785L130.931 9.14988C130.841 8.99648 130.76 8.87968 130.689 8.79946C130.618 8.71924 130.546 8.66436 130.473 8.6348C130.4 8.60525 130.308 8.59047 130.197 8.59047ZM130.556 7.29012H129.977V8.14084H130.539C130.689 8.14084 130.816 8.12817 130.919 8.10284C131.021 8.0761 131.1 8.03177 131.153 7.96985C131.208 7.90652 131.235 7.81997 131.235 7.7102C131.235 7.62436 131.214 7.54907 131.17 7.48433C131.126 7.41819 131.066 7.36893 130.988 7.33656C130.915 7.3056 130.771 7.29012 130.556 7.29012Z" fill="#F57C00"/>
<path d="M133.554 9.44752L133.058 7.47589V9.61218C133.058 9.73039 133.031 9.81905 132.978 9.87816C132.926 9.93727 132.856 9.96682 132.769 9.96682C132.684 9.96682 132.616 9.93797 132.562 9.88027C132.509 9.82117 132.482 9.7318 132.482 9.61218V7.16346C132.482 7.02836 132.517 6.93759 132.587 6.89115C132.658 6.8433 132.753 6.81938 132.872 6.81938H133.067C133.183 6.81938 133.268 6.82993 133.32 6.85104C133.373 6.87215 133.413 6.91015 133.438 6.96503C133.463 7.01992 133.492 7.10928 133.525 7.23312L133.974 8.92823L134.424 7.23312C134.456 7.10928 134.485 7.01992 134.51 6.96503C134.536 6.91015 134.575 6.87215 134.627 6.85104C134.68 6.82993 134.765 6.81938 134.882 6.81938H135.076C135.196 6.81938 135.291 6.8433 135.361 6.89115C135.432 6.93759 135.467 7.02836 135.467 7.16346V9.61218C135.467 9.73039 135.44 9.81905 135.387 9.87816C135.334 9.93727 135.264 9.96682 135.175 9.96682C135.092 9.96682 135.024 9.93727 134.971 9.87816C134.917 9.81905 134.89 9.73039 134.89 9.61218V7.47589L134.394 9.44752C134.362 9.57559 134.335 9.66988 134.314 9.73039C134.294 9.7895 134.257 9.84368 134.202 9.89294C134.147 9.94219 134.071 9.96682 133.974 9.96682C133.901 9.96682 133.839 9.95064 133.789 9.91827C133.738 9.88731 133.698 9.8472 133.67 9.79794C133.642 9.74869 133.62 9.69451 133.603 9.6354C133.587 9.57489 133.571 9.51226 133.554 9.44752Z" fill="#F57C00"/>
</g>
<defs>
<clipPath id="clip0_5217_937">
<rect width="135.467" height="40" fill="white"/>
</clipPath>
</defs>
</svg>
