<svg width="168" height="168" viewBox="0 0 168 168" fill="none" xmlns="http://www.w3.org/2000/svg">
<path d="M24.8999 127.439C29.4695 138.59 36.9203 140.911 42.1588 138.59C52.2898 134.101 78.6068 129.086 105.635 140.875C141.433 156.488 149.049 132.931 137.625 109.102C126.2 85.2737 122.328 61.1759 135.498 47.8998C148.669 34.6235 131.434 13.8547 100.826 35.4736C81.0464 49.4446 66.53 46.3337 58.7349 42.3841C51.3883 38.6618 43.2179 34.7704 35.5631 37.8088C26.2748 41.4958 22.6149 49.4894 36.7466 67.3475C56.7725 92.6531 14.6565 102.444 24.8999 127.439Z" fill="#F0F5FF"/>
<path d="M43.5059 73.1184H114.622V127.812C114.622 127.923 114.579 128.03 114.499 128.108C114.421 128.188 114.314 128.232 114.202 128.232H43.9259C43.8144 128.232 43.7076 128.188 43.6289 128.108C43.5501 128.03 43.5059 127.923 43.5059 127.812V73.1184Z" fill="#ADC6FF"/>
<path d="M96.7821 51.6857H63.7137L43.5059 73.1184H114.622L96.7821 51.6857Z" fill="#597EF7"/>
<path d="M50.2425 43.1124L63.7144 51.6856L43.5065 73.1184L28.1973 61.4838L50.2425 43.1124Z" fill="#85A5FF"/>
<path d="M110.255 43.1124L96.7822 51.6856L114.623 73.1184L132.3 61.4838L110.255 43.1124Z" fill="#85A5FF"/>
<path d="M72.4022 43.5509C72.7826 43.3706 73.0784 43.0504 73.2278 42.6571C73.3772 42.2639 73.3694 41.828 73.205 41.4407L67.1444 27.1499C67.0586 26.9475 66.9326 26.7646 66.7742 26.612C66.6158 26.4595 66.4286 26.3406 66.2228 26.2624C66.0176 26.1842 65.798 26.1484 65.5784 26.1572C65.3588 26.1659 65.1428 26.2189 64.9442 26.3131L63.7766 26.8668C63.578 26.961 63.4004 27.0944 63.2546 27.259C63.1088 27.4235 62.9978 27.6159 62.9282 27.8245C62.8586 28.033 62.8322 28.2535 62.8502 28.4727C62.8682 28.6918 62.93 28.9051 63.032 29.0996L70.2602 42.8367C70.4564 43.2091 70.7888 43.4912 71.1878 43.6244C71.5868 43.7575 72.0218 43.7311 72.4022 43.5509Z" fill="#F57C00"/>
<path d="M80.0008 42.1654C80.2756 42.1458 80.5324 42.0207 80.7178 41.8161C80.9026 41.6115 81.0016 41.3433 80.9938 41.0676L80.6944 30.8938C80.6902 30.7498 80.6566 30.608 80.596 30.4771C80.536 30.3462 80.4496 30.2289 80.3428 30.1322C80.2354 30.0355 80.11 29.9614 79.9738 29.9144C79.8376 29.8674 79.693 29.8484 79.5496 29.8587L78.7042 29.9189C78.5602 29.9291 78.4204 29.9683 78.292 30.0341C78.1636 30.0999 78.0502 30.1909 77.9578 30.3018C77.866 30.4125 77.797 30.5409 77.7556 30.6789C77.7142 30.817 77.7016 30.962 77.7178 31.1052L78.862 41.2188C78.8932 41.493 79.0288 41.7446 79.2412 41.921C79.453 42.0974 79.7254 42.185 80.0008 42.1654Z" fill="#F57C00"/>
<path d="M85.8661 45.9263C86.6233 46.3639 87.6852 45.9623 88.2744 45.0159L98.7379 28.2115C99.363 27.2075 99.2148 25.984 98.4126 25.5199L97.2937 24.8731C96.4909 24.409 95.3562 24.8909 94.7982 25.9334L85.4539 43.3846C84.9277 44.3675 85.1095 45.4886 85.8661 45.9263Z" fill="#F57C00"/>
</svg>
