<svg width="168" height="168" viewBox="0 0 168 168" fill="none" xmlns="http://www.w3.org/2000/svg">
  <path
    d="M31.5976 76.2172C31.5976 76.2172 54.8601 75.286 59.8872 37.0472C64.3515 3.08758 103.578 18.5448 114.917 32.0819C129.606 49.6181 121.776 79.7842 140.777 83.5948C159.779 87.4054 147.371 129.775 118.527 125.72C82.6473 120.675 91.3281 141.641 80.5569 150.515C72.8271 156.885 41.1306 150.753 40.0742 127.634C39.1853 108.178 30.9786 108.24 25.1617 106.034C16.7724 102.852 11.4862 79.81 31.5976 76.2172Z"
    fill="#F0F5FF" />
  <path d="M110.677 118.684L87.8227 96.1006L83.2969 100.68L106.152 123.264L110.677 118.684Z" fill="#F57C00" />
  <path
    d="M119.408 124.752L101.627 107.182C101.528 107.084 101.368 107.085 101.27 107.184L94.5407 113.995C94.4429 114.094 94.4435 114.254 94.5425 114.351L112.323 131.921C112.422 132.019 112.582 132.018 112.68 131.919L119.41 125.108C119.508 125.009 119.507 124.85 119.408 124.752Z"
    fill="#597EF7" />
  <path
    d="M67.5665 107.458C83.2895 107.458 96.0359 94.7114 96.0359 78.9884C96.0359 63.2648 83.2895 50.5186 67.5665 50.5186C51.843 50.5186 39.0967 63.2648 39.0967 78.9884C39.0967 94.7114 51.843 107.458 67.5665 107.458Z"
    fill="#597EF7" />
  <path
    d="M67.5666 102.813C80.724 102.813 91.3908 92.1464 91.3908 78.9884C91.3908 65.8304 80.724 55.1641 67.5666 55.1641C54.4087 55.1641 43.7422 65.8304 43.7422 78.9884C43.7422 92.1464 54.4087 102.813 67.5666 102.813Z"
    fill="#ADC6FF" />
  <path
    d="M115.698 53.2523C109.02 51.0876 101.803 54.7486 99.629 61.4542C97.4648 68.1322 101.125 75.349 107.831 77.5222C114.537 79.6954 121.735 75.9988 123.9 69.3202C126.064 62.6422 122.376 55.4168 115.698 53.2523ZM113.682 59.4691C114.43 59.7114 115.089 60.1702 115.575 60.7876C116.061 61.4044 116.353 62.1526 116.414 62.9356C116.475 63.7192 116.302 64.5028 115.917 65.188C115.531 65.8726 114.951 66.4276 114.25 66.7822C113.549 67.1368 112.758 67.2754 111.978 67.18C111.198 67.0846 110.464 66.76 109.869 66.247C109.274 65.734 108.844 65.0554 108.636 64.2982C108.426 63.5404 108.447 62.7382 108.694 61.9924C109.363 59.9292 111.619 58.8003 113.682 59.4691ZM108.64 75.025C106.422 74.3092 104.521 72.8446 103.263 70.882C105.617 69.5446 108.078 69.172 110.304 69.8938C112.53 70.6156 114.34 72.3418 115.426 74.824C113.256 75.676 110.857 75.7468 108.64 75.025Z"
    fill="#597EF7" />
  <path
    d="M60.1143 114.105C58.9545 114.697 57.9962 115.62 57.3607 116.757C56.7252 117.894 56.441 119.193 56.5441 120.492C56.6472 121.789 57.133 123.028 57.94 124.05C58.747 125.073 59.839 125.832 61.0779 126.234C62.3169 126.636 63.6465 126.66 64.8999 126.306C66.1533 125.952 67.2729 125.233 68.1183 124.243C68.9631 123.252 69.4953 122.032 69.6477 120.739C69.7995 119.446 69.5649 118.137 68.9727 116.976C68.1771 115.422 66.7983 114.247 65.1375 113.709C63.4767 113.17 61.6701 113.313 60.1143 114.105ZM61.6479 117.11C62.0091 116.925 62.4171 116.853 62.8203 116.9C63.2229 116.948 63.6027 117.114 63.9105 117.378C64.2189 117.642 64.4415 117.991 64.5507 118.381C64.6605 118.772 64.6509 119.187 64.5243 119.572C64.3983 119.958 64.1601 120.297 63.8403 120.546C63.5211 120.796 63.1347 120.946 62.7297 120.975C62.3253 121.005 61.9209 120.915 61.5681 120.714C61.2159 120.514 60.9303 120.213 60.7485 119.851C60.5079 119.367 60.4671 118.809 60.6357 118.296C60.8037 117.783 61.1679 117.356 61.6479 117.109V117.11ZM65.4855 124.628C64.4145 125.176 63.1863 125.335 62.0109 125.078C62.3817 123.731 63.1437 122.697 64.2201 122.148C65.2959 121.599 66.5865 121.569 67.8891 122.078C67.4079 123.181 66.5583 124.082 65.4855 124.627V124.628Z"
    fill="#597EF7" />
</svg>