<svg width="24" height="24" viewBox="0 0 24 24" fill="none" xmlns="http://www.w3.org/2000/svg">
<path d="M9.50781 18.0024V18.5147C9.50781 19.1751 9.77032 19.8085 10.2375 20.2754C10.7048 20.7422 11.3384 21.0042 11.9989 21.0037V21.0037C12.6594 21.004 13.293 20.7417 13.7602 20.2747C14.2274 19.8077 14.4899 19.1742 14.4899 18.5137V18.0024" stroke="currentColor" stroke-width="1.5" stroke-linecap="round" stroke-linejoin="round"/>
<path fill-rule="evenodd" clip-rule="evenodd" d="M17.9489 18.0028C19.0832 18.0028 20.0028 17.0833 20.0028 15.949V15.949C20.0023 15.3728 19.7735 14.8202 19.3665 14.4123L18.0019 13.0488V8.99908C18.0019 5.68399 15.3145 2.99658 11.9994 2.99658V2.99658C8.68434 2.99658 5.99693 5.68399 5.99693 8.99908V13.0488L4.63236 14.4123C4.22534 14.8202 3.99655 15.3728 3.99609 15.949V15.949C3.99609 16.4937 4.21248 17.0161 4.59765 17.4013C4.98283 17.7864 5.50523 18.0028 6.04995 18.0028H17.9489Z" stroke="currentColor" stroke-width="1.5" stroke-linecap="round" stroke-linejoin="round"/>
</svg>
