  <svg fill="none" viewBox="0 0 24 24" id="stars-light-sparkle" xmlns="http://www.w3.org/2000/svg">
    <path clip-rule="evenodd" d="M12 16.001A4.002 4.002 0 0 1 16.002 12 4.002 4.002 0 0 1 12 7.998 4.002 4.002 0 0 1 8 12 4.002 4.002 0 0 1 12 16ZM18.94 8.06a3.001 3.001 0 0 1 3.002-3.001 3.001 3.001 0 0 1-3.002-3.001 3.001 3.001 0 0 1-3.001 3A3.001 3.001 0 0 1 18.94 8.06v0Z" stroke="#fff" stroke-width="1.5" stroke-linecap="round" stroke-linejoin="round"/>
    <path d="M21.004 11v6.002a4.002 4.002 0 0 1-4.002 4.002H6.998a4.002 4.002 0 0 1-4.001-4.002V6.998a4.002 4.002 0 0 1 4.001-4.002h6.003" stroke="#fff" stroke-width="1.5" stroke-linecap="round" stroke-linejoin="round"/>
  </svg>