<svg width="40" height="40" viewBox="0 0 40 40" fill="none" xmlns="http://www.w3.org/2000/svg">
<path d="M20 0C12.4286 0 5.82857 4.22857 2.42857 10.4286H7.14286C7.94286 10.4286 8.57143 11.0571 8.57143 11.8571V19C8.57143 25.3143 13.6857 30.4286 20 30.4286C26.3143 30.4286 31.4286 25.3143 31.4286 19C31.4286 18.2 32.0571 17.5714 32.8571 17.5714C33.6571 17.5714 34.2857 18.2286 34.2857 19C34.2857 26.8857 27.8857 33.2857 20 33.2857C12.1143 33.2857 5.71429 26.8857 5.71429 19V13.2857H1.4C1.31429 13.2857 1.22857 13.2857 1.14286 13.2571C0.4 15.3714 0 17.6286 0 20C0 28.6286 5.45714 35.9714 13.1143 38.8C12.0857 38.3714 11.3714 37.3429 11.3714 36.1714C11.3714 34.6 12.6571 33.3143 14.2286 33.3143C15.8 33.3143 17.0857 34.6 17.0857 36.1714C17.0857 37.7429 15.8 39.0286 14.2286 39.0286C13.9714 39.0286 13.6857 39 13.4571 38.9143C15.5143 39.6286 17.7143 40 20 40C22.2571 40 24.4286 39.6286 26.4571 38.9143C26.2286 38.9714 26 39 25.7429 39C24.1714 39 22.8857 37.7143 22.8857 36.1429C22.8857 34.5714 24.1714 33.2857 25.7429 33.2857C27.3143 33.2857 28.6 34.5714 28.6 36.1429C28.6 37.3143 27.9143 38.3143 26.9143 38.7429C34.5429 35.9429 40 28.5714 40 19.9714C40 8.94286 31.0571 0 20 0ZM17.0857 20.4571C17.0857 21.2286 16.4286 21.8857 15.6571 21.8857C14.8857 21.8857 14.2286 21.2286 14.2286 20.4571V17.6C14.2286 16.8286 14.8857 16.1714 15.6571 16.1714C16.4571 16.1714 17.0857 16.8286 17.0857 17.6V20.4571ZM25.7714 20.4571C25.7714 21.2286 25.1143 21.8857 24.3429 21.8857C23.5429 21.8857 22.9143 21.2286 22.9143 20.4571V17.6C22.9143 16.8286 23.5714 16.1714 24.3429 16.1714C25.1143 16.1714 25.7714 16.8286 25.7714 17.6V20.4571Z" fill="#F9A236"/>
</svg>
